<svg xmlns="http://www.w3.org/2000/svg" width="36" height="36" viewBox="0 0 36 36">
  <g fill="#FEE050" fill-rule="evenodd" transform="translate(-.448)">
    <ellipse cx="17.948" cy="17.727" rx="9.112" ry="9"/>
    <rect width="1.657" height="6" x="17.119" rx=".828"/>
    <path d="M4.644 4.586a.864.864 0 0 1 1.21 0l3.026 2.99a.838.838 0 0 1 0 1.195.864.864 0 0 1-1.21 0L4.644 5.782a.838.838 0 0 1 0-1.196zM6.302 17.093a.85.85 0 0 1-.856.846h-4.28a.85.85 0 0 1-.855-.846.85.85 0 0 1 .856-.845h4.28a.85.85 0 0 1 .855.845zM8.452 25.723a.838.838 0 0 1 0 1.195l-3.026 2.99a.864.864 0 0 1-1.21 0 .838.838 0 0 1 0-1.196l3.026-2.99a.864.864 0 0 1 1.21 0z"/>
    <rect width="1.657" height="6" x="17.119" y="29.455" rx=".828"/>
    <path d="M26.899 25.723a.864.864 0 0 1 1.21 0l3.027 2.989a.838.838 0 0 1 0 1.196.864.864 0 0 1-1.211 0l-3.026-2.99a.838.838 0 0 1 0-1.195zM35.585 17.093a.85.85 0 0 1-.856.846h-4.28a.85.85 0 0 1-.856-.846.85.85 0 0 1 .856-.845h4.28a.85.85 0 0 1 .856.845zM30.708 4.586a.838.838 0 0 1 0 1.196l-3.027 2.99a.864.864 0 0 1-1.21 0 .838.838 0 0 1 0-1.196l3.026-2.99a.864.864 0 0 1 1.21 0z"/>
  </g>
</svg>
