<svg xmlns="http://www.w3.org/2000/svg" width="24" height="31" viewBox="0 0 24 31">
    <g fill="none" fill-rule="evenodd">
        <path stroke="#9B9B9B" stroke-width="1.5" d="M17.852 29.855H5.68a4.945 4.945 0 0 1-4.93-4.93V5.68A4.944 4.944 0 0 1 5.68.75h12.172a4.944 4.944 0 0 1 4.93 4.93v19.244a4.944 4.944 0 0 1-4.93 4.93z"/>
        <path fill="#9B9B9B" d="M17.641 10.052H5.891a.75.75 0 0 1 0-1.5h11.75a.75.75 0 0 1 0 1.5M17.641 16.052H5.891a.75.75 0 0 1 0-1.5h11.75a.75.75 0 0 1 0 1.5M17.641 22.052H5.891a.75.75 0 0 1 0-1.5h11.75a.75.75 0 0 1 0 1.5"/>
    </g>
</svg>
