<svg xmlns="http://www.w3.org/2000/svg" width="29" height="29" viewBox="0 0 29 29">
    <g fill="none" fill-rule="evenodd">
        <path stroke="#231F20" stroke-width="1.5" d="M21.709 27.708H6.75a6 6 0 0 1-6-6V6.75a6 6 0 0 1 6-6H21.71a6 6 0 0 1 6 6v14.958a6 6 0 0 1-6 6z"/>
        <path stroke="#231F20" stroke-width="1.5" d="M.709 19.304s4.943-9.823 7.546-9.67c2.604.153 4.845 5.395 6.586 5.515 2.222.152 4.214-2.681 5.745-2.528 1.532.153 7.123 6.662 7.123 6.662"/>
        <path fill="#231F20" d="M22.543 4.85a1.608 1.608 0 1 1 0 3.216 1.608 1.608 0 0 1 0-3.216"/>
    </g>
</svg>
