<svg xmlns="http://www.w3.org/2000/svg" width="45" height="24" viewBox="0 0 45 24">
    <g fill="none" fill-rule="evenodd">
        <path fill="#F4D959" d="M31.861 22.52h-20.61c-5.776 0-10.5-4.726-10.5-10.5v-.77C.75 5.475 5.474.75 11.25.75h20.61c5.775 0 10.5 4.726 10.5 10.5v.77c0 5.774-4.725 10.5-10.5 10.5"/>
        <path stroke="#9B9B9B" stroke-width="1.5" d="M31.861 22.52h-20.61c-5.776 0-10.5-4.726-10.5-10.5v-.77C.75 5.475 5.474.75 11.25.75h20.61c5.775 0 10.5 4.726 10.5 10.5v.77c0 5.774-4.725 10.5-10.5 10.5z"/>
        <path fill="#FEFEFE" d="M43.361 11.635c0 5.799-4.7 10.5-10.5 10.5-5.799 0-10.5-4.701-10.5-10.5 0-5.8 4.701-10.5 10.5-10.5 5.8 0 10.5 4.7 10.5 10.5"/>
        <path stroke="#9B9B9B" stroke-width="1.5" d="M43.361 11.635c0 5.799-4.7 10.5-10.5 10.5-5.799 0-10.5-4.701-10.5-10.5 0-5.8 4.701-10.5 10.5-10.5 5.8 0 10.5 4.7 10.5 10.5z"/>
    </g>
</svg>
