<svg xmlns="http://www.w3.org/2000/svg" width="28" height="42" viewBox="0 0 28 42">
    <g fill="#9B9B9B" fill-rule="evenodd">
        <text font-family="ProximaNovaSoft-Bold, Proxima Nova Soft" font-size="7" font-weight="bold" transform="translate(-9 -4)">
            <tspan x="11.541" y="45">BLOCK</tspan>
        </text>
        <path d="M22.746 22.746c-4.701 4.7-12.25 4.834-17.131.43l17.56-17.561c4.405 4.88 4.272 12.43-.43 17.13M5.14 5.14a12.405 12.405 0 0 1 8.803-3.641c2.918 0 5.83 1.03 8.164 3.063L4.562 22.107C.307 17.222.49 9.787 5.14 5.14m18.667-1.061c-5.44-5.438-14.29-5.438-19.728 0-5.438 5.439-5.438 14.289 0 19.728a13.908 13.908 0 0 0 9.864 4.079 13.91 13.91 0 0 0 9.864-4.08c5.438-5.438 5.438-14.288 0-19.727"/>
    </g>
</svg>
