<svg xmlns="http://www.w3.org/2000/svg" width="29" height="29" viewBox="0 0 29 29">
    <g fill="none" fill-rule="evenodd">
        <path stroke="#231F20" stroke-width="1.5" d="M20.203 15.225a5.974 5.974 0 1 1-11.949 0 5.974 5.974 0 0 1 11.95 0z"/>
        <path fill="#231F20" d="M22.46 4.963a1.608 1.608 0 1 1 0 3.216 1.608 1.608 0 0 1 0-3.216"/>
        <path stroke="#231F20" stroke-width="1.5" d="M21.709 27.709H6.75a6 6 0 0 1-6-6V6.749a6 6 0 0 1 6-6H21.71a6 6 0 0 1 6 6v14.96a6 6 0 0 1-6 6z"/>
    </g>
</svg>
