<svg xmlns="http://www.w3.org/2000/svg" xmlns:xlink="http://www.w3.org/1999/xlink" width="30" height="30" viewBox="0 0 30 30">
    <defs>
        <circle id="b" cx="15" cy="13" r="11"/>
        <filter id="a" width="163.6%" height="163.6%" x="-31.8%" y="-22.7%" filterUnits="objectBoundingBox">
            <feOffset dy="2" in="SourceAlpha" result="shadowOffsetOuter1"/>
            <feGaussianBlur in="shadowOffsetOuter1" result="shadowBlurOuter1" stdDeviation="2"/>
            <feColorMatrix in="shadowBlurOuter1" values="0 0 0 0 0.0588235294 0 0 0 0 0.0274509804 0 0 0 0 0.176470588 0 0 0 0.1 0"/>
        </filter>
    </defs>
    <g fill="none" fill-rule="evenodd" opacity=".9">
        <g>
            <use fill="#000" filter="url(#a)" xlink:href="#b"/>
            <use fill="#FFF" xlink:href="#b"/>
        </g>
        <path stroke="#9B9B9B" stroke-width="1.5" d="M18.102 13.613a2.987 2.987 0 1 1-5.975 0 2.987 2.987 0 0 1 5.975 0z"/>
        <path fill="#9B9B9B" d="M19.23 8.481a.804.804 0 1 1 0 1.608.804.804 0 0 1 0-1.608"/>
        <path stroke="#9B9B9B" stroke-width="1.5" d="M18.854 19.854h-7.479a3 3 0 0 1-3-3v-7.48a3 3 0 0 1 3-3h7.48a3 3 0 0 1 3 3v7.48a3 3 0 0 1-3 3z"/>
    </g>
</svg>
