<svg xmlns="http://www.w3.org/2000/svg" width="30" height="42" viewBox="0 0 30 42">
    <g fill="#9B9B9B" fill-rule="evenodd">
        <text font-family="ProximaNovaSoft-Bold, Proxima Nova Soft" font-size="7" font-weight="bold" transform="translate(-7.333 -4)">
            <tspan x="11.006" y="45">CHATS</tspan>
        </text>
        <path d="M28.056 17.375c-.025 2.13-1.418 4.05-3.607 4.445-1.333.24-2.82.07-4.164.07-1.136 0-1.884-.191-2.66.682-.777.872-2.249 3.35-3.511 1.985-.424-.458-.792-.979-1.184-1.464-.338-.418-.671-1.049-1.222-1.191-.38-.098-.89-.013-1.275-.013H7.921c-1.815 0-3.562-.09-4.816-1.626-.938-1.148-.975-2.474-.975-3.858V7.261c0-1.227-.078-2.42.551-3.544.857-1.53 2.42-2.24 4.131-2.254 5.612-.044 11.227 0 16.84 0 2.5.081 4.325 1.965 4.404 4.415.034 1.038 0 2.083 0 3.122 0 2.791.034 5.584 0 8.375zm-16.95 5.765a.685.685 0 0 0 .049.063c-.05-.017-.076-.038-.048-.063zM29.519 8.786c0-1.25.118-2.575-.07-3.818C29.017 2.102 26.524.11 23.653.017c-5.59 0-11.18-.038-16.769 0C3.18.043.668 2.694.668 6.31v9.781c0 1.27-.046 2.506.474 3.706.948 2.187 3.08 3.477 5.45 3.539 1.5.039 3.052.088 4.55 0l.113-.008c.146.18.35.427.367.45.483.596.939 1.235 1.458 1.802 1.312 1.433 2.978.938 4.12-.346.523-.588 1.247-1.19 1.66-1.86.273.03.67-.038.881-.038 1.508 0 3.076.127 4.578-.043 2.361-.268 4.392-1.996 5.003-4.274.342-1.275.196-2.732.196-4.037V8.786z"/>
        <path d="M10.645 11.598a.848.848 0 0 1-.852.844.848.848 0 0 1-.853-.844c0-.466.381-.844.853-.844.47 0 .852.378.852.844M15.093 10.754c.471 0 .853.378.853.844a.848.848 0 0 1-.853.844.848.848 0 0 1-.853-.844c0-.466.382-.844.853-.844M20.393 10.754c.471 0 .853.378.853.844a.848.848 0 0 1-.853.844.848.848 0 0 1-.853-.844c0-.466.382-.844.853-.844"/>
    </g>
</svg>
