<svg xmlns="http://www.w3.org/2000/svg" width="29" height="42" viewBox="0 0 29 42">
    <g fill="#78AEF9" fill-rule="evenodd">
        <text font-family="ProximaNovaSoft-Bold, Proxima Nova Soft" font-size="7" font-weight="bold" transform="translate(-8 -4)">
            <tspan x="11.006" y="45">CHATS</tspan>
        </text>
        <path d="M27.39 17.375c-.026 2.13-1.419 4.05-3.608 4.445-1.333.24-2.819.07-4.164.07-1.135 0-1.883-.191-2.66.682-.776.872-2.249 3.35-3.51 1.985-.425-.458-.793-.979-1.185-1.464-.338-.418-.67-1.049-1.222-1.191-.38-.098-.89-.013-1.275-.013H7.255c-1.816 0-3.563-.09-4.817-1.626-.937-1.148-.975-2.474-.975-3.858V7.261c0-1.227-.078-2.42.551-3.544.857-1.53 2.42-2.24 4.131-2.254 5.613-.044 11.228 0 16.84 0 2.5.081 4.325 1.965 4.404 4.415.034 1.038 0 2.083 0 3.122 0 2.791.034 5.584 0 8.375zM10.44 23.14a.685.685 0 0 0 .048.063c-.05-.017-.076-.038-.048-.063zM28.852 8.786c0-1.25.118-2.575-.07-3.818C28.35 2.102 25.856.11 22.985.017c-5.589 0-11.18-.038-16.768 0C2.512.043 0 2.694 0 6.31v9.781c0 1.27-.046 2.506.474 3.706.949 2.187 3.08 3.477 5.45 3.539 1.501.039 3.052.088 4.55 0l.114-.008c.145.18.349.427.366.45.483.596.94 1.235 1.458 1.802 1.313 1.433 2.978.938 4.12-.346.523-.588 1.247-1.19 1.66-1.86.274.03.67-.038.881-.038 1.509 0 3.077.127 4.578-.043 2.362-.268 4.393-1.996 5.003-4.274.342-1.275.197-2.732.197-4.037V8.786z"/>
        <path d="M9.979 11.598a.848.848 0 0 1-.853.844.848.848 0 0 1-.853-.844c0-.466.382-.844.853-.844s.853.378.853.844M14.426 10.754c.471 0 .853.378.853.844a.848.848 0 0 1-.853.844.848.848 0 0 1-.853-.844c0-.466.382-.844.853-.844M19.727 10.754c.47 0 .853.378.853.844a.848.848 0 0 1-.853.844.848.848 0 0 1-.853-.844c0-.466.382-.844.853-.844"/>
    </g>
</svg>
