<svg xmlns="http://www.w3.org/2000/svg" width="30" height="30" viewBox="0 0 30 30">
    <g fill="none" fill-rule="evenodd">
        <path stroke="#9B9B9B" stroke-width="1.5" d="M24.556 4.829C19.118-.61 10.267-.61 4.828 4.829c-5.438 5.439-5.438 14.289 0 19.728a13.91 13.91 0 0 0 9.864 4.079c3.572 0 7.145-1.36 9.864-4.08 5.438-5.438 5.438-14.288 0-19.727z"/>
        <path fill="#9B9B9B" d="M14.693 23.713A1.586 1.586 0 0 1 13.1 22.12v-9.355c0-.86.707-1.568 1.643-1.568.86 0 1.568.708 1.568 1.568v9.355c0 .885-.707 1.593-1.618 1.593m1.921-15.6c0 1.06-.86 1.92-1.921 1.92a1.936 1.936 0 0 1-1.921-1.92c0-1.062.883-1.897 1.92-1.897 1.063 0 1.922.835 1.922 1.897"/>
    </g>
</svg>
