<svg xmlns="http://www.w3.org/2000/svg" xmlns:xlink="http://www.w3.org/1999/xlink" width="76" height="75" viewBox="0 0 76 75">
    <defs>
        <path id="a" d="M0 51.841V.702h75.676v51.14z"/>
    </defs>
    <g fill="none" fill-rule="evenodd">
        <g>
            <mask id="b" fill="#fff">
                <use xlink:href="#a"/>
            </mask>
            <path fill="#EEF7FF" d="M64.295 21.409C63.629 9.898 54.269.702 42.994.702c-6.849 0-13.482 3.403-17.597 8.958-.091-.05-.191-.08-.289-.132a13.345 13.345 0 0 0-.758-.34c-.146-.059-.289-.109-.436-.165a14.102 14.102 0 0 0-.776-.242c-.148-.039-.29-.082-.438-.114a12.347 12.347 0 0 0-.867-.155 3.227 3.227 0 0 0-.384-.063 11.93 11.93 0 0 0-1.268-.075c-6.263 0-11.35 5.162-11.35 11.505 0 .164.006.324.018.481v.007c-5.247 2.902-8.85 8.97-8.85 15.051 0 9.058 7.267 16.423 16.203 16.423h30.911c.13 0 .258-.006.394-.019l.074-.013.172.013c.13.013.259.02.388.02h12.367c8.363 0 15.168-6.898 15.168-15.376 0-7.017-4.827-13.315-11.381-15.057" mask="url(#b)"/>
        </g>
        <path fill="#FEE050" d="M28.176 75c-.1 0-.2-.02-.287-.074a.538.538 0 0 1-.243-.655l5.902-15.655-7.139-1.964a.57.57 0 0 1-.386-.362.54.54 0 0 1 .11-.512l14.481-16.587a.58.58 0 0 1 .696-.128.532.532 0 0 1 .275.633L37.411 53.66l7.177 1.971c.188.054.333.19.387.366a.534.534 0 0 1-.11.517L28.607 74.81a.565.565 0 0 1-.431.191"/>
    </g>
</svg>
