<svg xmlns="http://www.w3.org/2000/svg" width="32" height="46" viewBox="0 0 32 46">
    <g fill="none" fill-rule="evenodd" transform="translate(-8)">
        <g fill="#9B9B9B">
            <text font-family="ProximaNovaSoft-Bold, Proxima Nova Soft" font-size="7" font-weight="bold">
                <tspan x="11.006" y="45">CHATS</tspan>
            </text>
            <path d="M35.39 21.375c-.026 2.13-1.419 4.05-3.608 4.445-1.333.24-2.819.07-4.164.07-1.135 0-1.883-.191-2.66.682-.776.872-2.249 3.35-3.51 1.985-.425-.458-.793-.979-1.185-1.464-.338-.418-.67-1.049-1.222-1.191-.38-.098-.89-.013-1.275-.013h-2.511c-1.816 0-3.563-.09-4.817-1.626-.937-1.148-.975-2.474-.975-3.858v-9.144c0-1.227-.078-2.42.551-3.544.857-1.53 2.42-2.24 4.131-2.254 5.613-.044 11.228 0 16.84 0 2.5.081 4.325 1.965 4.404 4.415.034 1.038 0 2.083 0 3.122 0 2.791.034 5.584 0 8.375zM18.44 27.14a.685.685 0 0 0 .048.063c-.05-.017-.076-.038-.048-.063zm18.412-14.354c0-1.25.118-2.575-.07-3.818-.432-2.866-2.926-4.858-5.797-4.951-5.589 0-11.18-.038-16.768 0C10.512 4.043 8 6.694 8 10.31v9.781c0 1.27-.046 2.506.474 3.706.949 2.187 3.08 3.477 5.45 3.539 1.501.039 3.052.088 4.55 0l.114-.008c.145.18.349.427.366.45.483.596.94 1.235 1.458 1.802 1.313 1.433 2.978.938 4.12-.346.523-.588 1.247-1.19 1.66-1.86.274.03.67-.038.881-.038 1.509 0 3.077.127 4.578-.043 2.362-.268 4.393-1.996 5.003-4.274.342-1.275.197-2.732.197-4.037v-6.196z"/>
            <path d="M17.979 15.598a.848.848 0 0 1-.853.844.848.848 0 0 1-.853-.844c0-.466.382-.844.853-.844s.853.378.853.844M22.426 14.754c.471 0 .853.378.853.844a.848.848 0 0 1-.853.844.848.848 0 0 1-.853-.844c0-.466.382-.844.853-.844M27.727 14.754c.47 0 .853.378.853.844a.848.848 0 0 1-.853.844.848.848 0 0 1-.853-.844c0-.466.382-.844.853-.844"/>
        </g>
        <circle cx="34.5" cy="5.5" r="5.5" fill="#FF7171"/>
    </g>
</svg>
