<svg xmlns="http://www.w3.org/2000/svg" width="29" height="42" viewBox="0 0 29 42">
    <g fill="#9B9B9B" fill-rule="evenodd">
        <text font-family="ProximaNovaSoft-Bold, Proxima Nova Soft" font-size="7" font-weight="bold" transform="translate(-8 -4)">
            <tspan x="12.231" y="45">HOME</tspan>
        </text>
        <path d="M22.449 17.496c0-.923-1.45-.925-1.45 0V22.7c0 .953.051 1.858-.573 2.671-.698.91-1.694 1.1-2.769 1.1h-6.114c-.725 0-1.498.073-2.184-.194-1.3-.506-1.764-1.674-1.78-2.956-.024-1.94 0-3.884 0-5.825 0-.923-1.45-.925-1.45 0 0 1.98-.02 3.961 0 5.94.028 2.608 1.872 4.443 4.508 4.472 2.244.024 4.488 0 6.732 0 .97 0 1.904-.013 2.794-.473 1.427-.737 2.226-2.166 2.286-3.73.08-2.063 0-4.143 0-6.209"/>
        <path d="M25.544 16.076H6.148c-1.098 0-3.2.36-4.112-.433-1.845-1.606.801-3.512 1.88-4.58l5.812-5.756 2.33-2.308c.42-.416.849-.951 1.409-1.179 1.693-.689 3.653 1.981 4.7 2.975l6.57 6.235c.635.602 1.288 1.19 1.905 1.808 1.167 1.169.752 3.141-1.098 3.238m1.998-4.373c-1.794-1.732-3.618-3.434-5.427-5.15-1.827-1.734-3.628-3.5-5.482-5.203C15.709.502 14.57.007 13.295.349c-.881.236-1.466.847-2.082 1.457C7.796 5.19 4.176 8.453.925 11.994c-2.054 2.237-.452 5.45 2.492 5.518 1.983.046 3.973 0 5.957 0h16.17c1.7-.09 3.138-1.273 3.254-3.018.075-1.141-.465-2.027-1.256-2.791"/>
    </g>
</svg>
