<svg xmlns="http://www.w3.org/2000/svg" width="32" height="40" viewBox="0 0 32 40">
    <g fill="none" fill-rule="evenodd">
        <path stroke="#78AEF9" stroke-width="1.5" d="M17.678 25.221c.171-.118.333-.25.483-.395l8.865-8.54c2.543-2.541 3.814-5.04 3.814-7.492 0-2.444-.705-4.353-2.115-5.729C27.315 1.69 25.367 1 22.88 1c-.688 0-1.391.12-2.107.358a8.497 8.497 0 0 0-1.997.966c-.617.405-1.146.785-1.592 1.14a1.99 1.99 0 0 1-2.517.011 21.27 21.27 0 0 0-1.603-1.151 8.49 8.49 0 0 0-2-.966A6.63 6.63 0 0 0 8.96 1c-2.488 0-4.436.69-5.845 2.065C1.705 4.441 1 6.351 1 8.794c0 .744.13 1.509.391 2.297.261.788.557 1.46.89 2.015.334.554.712 1.097 1.133 1.623.422.527.73.891.925 1.091.193.199.346.345.457.433l9.07 8.75 1.164.88c.148.146.78.123 1.216.1.239-.012.467-.09.664-.227l.768-.535z"/>
        <text fill="#78AEF9" font-family="ProximaNovaSoft-Bold, Proxima Nova Soft" font-size="7" font-weight="bold" transform="translate(1 1)">
            <tspan x="7.444" y="39">LIKE</tspan>
        </text>
        <path fill="#78AEF9" d="M17.678 25.221c.171-.118.333-.25.483-.395l8.865-8.54c2.543-2.541 3.814-5.04 3.814-7.492 0-2.444-.705-4.353-2.115-5.729C27.315 1.69 25.367 1 22.88 1c-.688 0-1.391.12-2.107.358a8.497 8.497 0 0 0-1.997.966c-.617.405-1.146.785-1.592 1.14l-.012.011a1.988 1.988 0 0 1-2.518-.01 21.355 21.355 0 0 0-1.59-1.141 8.49 8.49 0 0 0-2-.966A6.63 6.63 0 0 0 8.96 1c-2.488 0-4.436.69-5.845 2.065C1.705 4.441 1 6.351 1 8.794c0 .744.13 1.509.391 2.297.261.788.557 1.46.89 2.015.334.554.712 1.097 1.133 1.623.422.527.73.891.925 1.091.193.199.346.345.457.433l9.07 8.75 1.164.88c.148.146.78.123 1.216.1.239-.012.467-.09.664-.227l.768-.535z"/>
    </g>
</svg>
