<svg xmlns="http://www.w3.org/2000/svg" xmlns:xlink="http://www.w3.org/1999/xlink" width="184" height="195" viewBox="0 0 184 195">
    <defs>
        <path id="a" d="M0 149.99V.922h183.533V149.99H0z"/>
        <path id="c" d="M183.533 149.99V.922H0V149.99z"/>
        <path id="e" d="M0 195.078h183.533V1H0z"/>
    </defs>
    <g fill="none" fill-rule="evenodd" transform="translate(0 -1)">
        <path fill="#362B24" d="M33.629 157.737c-.065.27-.15.55-.292.784-1.074 1.773-1.986 3.686-3.301 5.26-1.256 1.504-2.673 3.02-4.646 3.671-1.213.401-1.526 1.177-1.51 2.363.044 3.197-.001 6.396-.014 9.594-.001.28.006.562-.033.838-.127.892-.487 1.29-1.39 1.374-2.105.197-4.216.306-6.327.053-.788-.095-1.219-.48-1.298-1.317-.176-1.868-.35-3.739-.423-5.613-.083-2.116-.054-4.236-.079-6.354-.003-.195-.047-.39-.084-.684-.719-.253-1.435-.359-1.976-.725-1.445-.977-2.935-1.869-4.192-3.152-1.291-1.318-2.229-2.828-3.035-4.414-.624-1.229-.985-2.61-1.335-3.957-.39-1.502-.756-3.029-.908-4.567-.152-1.535-.031-3.097-.019-4.648.002-.318.057-.635.076-.954.071-1.157.363-1.548 1.459-1.663a73.464 73.464 0 0 1 4.299-.3c.797-.036 1.598.03 2.398.05 1.731.041 2.156.563 2.033 2.302-.089 1.27-.17 2.555-.073 3.82.115 1.506.298 3.03.679 4.487.633 2.425 2.165 4.051 4.716 4.565 2.015.407 4.172-.592 5.181-2.41.733-1.32 1.077-2.768 1.147-4.246.1-2.11.057-4.226.064-6.34.006-1.527.393-2.069 1.91-2.179a81.79 81.79 0 0 1 6.224-.209c1.4.006 1.866.478 1.996 1.874.111 1.191.162 2.4.105 3.593-.146 3.076-.626 6.11-1.352 9.104zM126.151 145.218c-.195-1.604-.597-2.032-2.198-2.068a66.28 66.28 0 0 0-4.436.051c-.792.035-1.584.185-2.364.344-.648.131-1.072.545-1.097 1.244-.053 1.437-.229 2.89-.086 4.31.166 1.627.012 3.196-.359 4.75a9.73 9.73 0 0 1-.994 2.55c-.947 1.652-3.093 2.533-4.96 2.163-2.652-.526-4.187-2.222-4.829-4.753-.662-2.609-.891-5.266-.577-7.954.032-.277.028-.56.019-.839-.037-1.155-.425-1.56-1.601-1.628a22.214 22.214 0 0 0-2.159-.037c-1.633.066-3.268.14-4.897.27-.944.073-1.42.412-1.473 1.135-.134 1.828-.403 3.688-.202 5.49.415 3.731 1.28 7.356 3.176 10.695.933 1.646 2.167 3.003 3.579 4.128 1.377 1.097 2.777 2.327 4.856 2.532v1.458c-.012 3.678.095 7.35.474 11.011.125 1.195.537 1.574 1.772 1.618.32.011.65-.028.956.042 1.683.383 3.341-.088 5.01-.133.877-.024 1.224-.51 1.314-1.422.024-.238.017-.48.018-.719.016-3.238.052-6.475.032-9.712-.007-1.124.31-1.882 1.472-2.272 1.966-.659 3.406-2.146 4.661-3.653 1.315-1.577 2.246-3.477 3.307-5.258.217-.365.303-.822.39-1.249.286-1.406.57-2.813.808-4.228.441-2.604.708-5.22.388-7.866M51.517 169.076c-.607 1.545-2.335 2.549-3.818 2.196-1.46-.348-3.004-1.316-3.057-3.346-.034-1.29.28-2.511 1.006-3.623.717-1.097 1.754-1.465 2.972-1.42 1.96.073 3.067.904 3.33 3.152.028.236.004.478.004.717l.126.028c-.182.768-.277 1.569-.563 2.296m9.896-6.804c-.767-2.027-1.762-3.946-3.18-5.584-1.182-1.365-2.717-2.333-4.321-3.148-.446-.226-1.001-.276-1.513-.325-.834-.08-1.675-.091-2.513-.131l-.011-.115c-1.466.16-2.961.196-4.392.514-1.84.409-3.555 1.188-4.985 2.482-1.401 1.267-2.607 2.714-3.52 4.352-.79 1.418-1.596 2.853-1.901 4.496-.328 1.768-.741 3.525-.113 5.31.026.073.01.159.017.238.156 2.065 1.255 3.749 2.21 5.49a.341.341 0 0 0 .077.094c1.299 1.105 2.307 2.563 3.964 3.237.29.118.533.349.804.518 1.663 1.038 3.565 1.322 5.433 1.706.115.024.24.003.359-.007 2.238-.191 4.477-.54 6.47-1.563 1.47-.753 2.748-1.886 4.075-2.897.299-.227.452-.65.664-.987.19-.303.34-.638.56-.917 1.2-1.522 1.709-3.358 2.076-5.173.427-2.11.272-4.29.047-6.435-.041-.392-.167-.784-.307-1.155M142.716 169.187c-.594 1.459-2.328 2.419-3.768 2.083-1.446-.337-3.086-1.41-3.048-3.47.02-1.092.206-2.142.757-3.096 1.036-1.794 3.404-2.411 5.17-1.317.872.54 1.215 1.443 1.36 2.417.047.312.008.636.008.954l.15.036c-.204.8-.32 1.635-.629 2.393m10.292-.027c.193-1.67.216-3.344-.009-5.007a11.75 11.75 0 0 0-.585-2.418c-.588-1.618-1.464-3.076-2.485-4.475-1.249-1.71-3.01-2.696-4.762-3.714-.395-.23-.92-.307-1.39-.32-1.755-.046-3.518-.142-5.266-.026-3.74.247-6.665 2.103-8.875 5.03-.925 1.225-1.685 2.589-2.39 3.989-.88 1.743-.962 3.606-1.425 5.364.143 1.086.236 2.12.42 3.137.346 1.915 1.245 3.602 2.285 5.217.148.23.388.4.59.593.433.414.85.847 1.308 1.23.487.407 1.001.784 1.526 1.14.428.292.894.526 1.333.8 1.663 1.042 3.567 1.317 5.434 1.705.115.024.24.004.36-.005 2.24-.181 4.473-.551 6.47-1.562 1.47-.745 2.747-1.884 4.074-2.895.3-.228.456-.647.668-.984.192-.303.336-.642.56-.918 1.194-1.48 1.493-3.325 2.09-5.048.088-.255.037-.556.07-.833M180.195 154.617c-1.076-.075-2.15-.183-3.229-.212-1.316-.035-2.634-.001-3.951-.002-.622 0-.981.275-1.008.92-.064 1.474-.192 2.949-.175 4.422.024 2.206-.104 4.394-.494 6.562-.258 1.424-.629 2.816-1.583 3.962-1.015 1.218-2.634 1.248-3.61.005a5.21 5.21 0 0 1-.899-1.797 8.87 8.87 0 0 1-.291-2.37c.034-3.592.111-7.184.192-10.776.027-1.163-.28-1.524-1.458-1.485-2.116.07-4.231.159-6.345.26-1.183.057-1.449.289-1.717 1.43-.074.308-.113.63-.115.946-.01 1.796-.004 3.592-.004 5.389h.066c0 .438.025.878-.004 1.315-.214 3.28-.211 6.548.815 9.718.242.747.634 1.449 1.007 2.146.242.455.539.89.873 1.283.539.632 1.11 1.238 1.703 1.818.34.333.767.574 1.126.89 1.316 1.159 4.845 2.38 6.572 2.138 1.685-.237 3.454-.143 4.986-1.094 2.427-.413 3.714-2.361 5.243-3.955.454-.474.628-1.205 1.027-1.748 1.044-1.426 1.421-3.122 1.887-4.756.379-1.332.466-2.75.659-4.132.166-1.186.369-2.374.428-3.567.093-1.872.142-3.752.088-5.625-.033-1.134-.645-1.605-1.789-1.685M90.531 163.18c.335-2.145.296-4.302.245-6.457-.038-1.586-.757-2.146-2.132-2.126-.876.012-1.753-.143-2.63-.164-1.436-.033-2.873-.02-4.309-.024-.576-.002-.898.284-.94.859-.07.953-.197 1.909-.18 2.862.044 2.68.007 5.35-.463 7.998-.268 1.503-.63 2.982-1.656 4.183-.99 1.159-2.543 1.16-3.549.022a4.235 4.235 0 0 1-1.086-2.61c-.069-1.23-.069-2.465-.062-3.698.02-2.913.06-5.826.091-8.74.012-1.2-.266-1.481-1.489-1.438-2.075.074-4.149.159-6.223.255-1.246.057-1.618.39-1.824 1.61-.053.312-.04.637-.042.956-.003 1.678 0 3.356 0 5.035l-.02-.001v2.276c.002 1.316.043 2.634-.002 3.948-.059 1.75.492 3.384.87 5.05.3 1.325 2.336 4.299 3.434 5.09.13.094.271.172.398.267.256.192.526.369.755.589 1.692 1.625 3.901 1.962 6.056 2.243 1.19.155 2.46-.148 3.672-.37.733-.132 1.406-.571 2.135-.756 2.613-.664 4.048-2.693 5.523-4.68.236-.316.367-.712.6-1.033 1.055-1.462 1.502-3.186 1.885-4.88.464-2.054.616-4.178.943-6.266M73.917 189.415c-.356.362-.643.792-1.053 1.306-.323-.397-.594-.722-.857-1.054-.33-.418-.673-.857-1.281-.68-.557.164-.637.698-.656 1.173-.045 1.117-.04 2.236-.048 3.355-.001.158.022.322.066.473.107.37.297.681.74.645.455-.036.593-.368.574-.765-.022-.478-.098-.954-.121-1.432-.017-.338-.133-.722.262-.954 1.235 1.05 1.289 1.054 2.8.203.026.48.043.908.072 1.336.025.358.037.72.1 1.071.065.346.289.632.66.525.219-.062.53-.337.534-.52.027-1.398.087-2.806-.06-4.189-.11-1.037-.992-1.244-1.732-.493M162.727 193.26c-.475.137-.983.153-1.61.243v-3.346c.584.04 1.096.008 1.574.122.686.165 1.132.811 1.154 1.501.027.761-.299 1.24-1.118 1.48m-1.99-4.369c-.644.09-.903.446-.919 1.035-.019.597-.004 1.195-.004 1.792h.017c0 .557-.003 1.114 0 1.672.007.916.337 1.371 1.251 1.4a7.565 7.565 0 0 0 2.231-.289c2.235-.624 2.324-3.345 1.253-4.57-1.074-1.227-2.396-1.239-3.829-1.04M24.89 191.183c-.382.132-.819.105-1.306.151v-1.388c.475.042.865.03 1.224.128.19.052.461.306.454.458-.01.231-.185.586-.372.651m1.368.901c.088-.193.213-.44.313-.696.513-1.329-.184-2.535-1.599-2.694-.629-.07-1.272-.029-1.907-.019-.52.01-.799.29-.836.815-.045.635-.116 1.268-.146 1.904a67.84 67.84 0 0 0-.06 2.387c-.004.404.193.766.598.742.237-.013.526-.312.661-.555.163-.293.188-.664.266-.977 1.344-.112 1.344-.112 1.921.947.02.034.038.07.057.105.181.336.41.62.842.465.423-.152.473-.539.394-.895-.103-.46-.292-.9-.504-1.529M130.08 191.51c-.311.106-.685.025-1.127.025v-1.417c.453.043.854.005 1.184.138.24.098.55.434.536.643-.016.224-.341.525-.593.61m.484-2.583c-.63-.18-1.335-.137-2.004-.122-.853.019-.96.142-1.001.965-.055 1.076-.087 2.152-.13 3.228-.006.199-.025.399-.023.598.004.457.049.944.62.99.497.039.644-.384.736-.793.058-.26.12-.518.19-.821.893.049 1.315.605 1.695 1.229.175.287.429.537.785.358.365-.184.47-.541.309-.921-.17-.4-.38-.78-.587-1.195.128-.161.254-.311.37-.467.982-1.315.61-2.6-.96-3.05M100.114 192.468c.414-.025.824-.182.812-.696-.015-.52-.428-.624-.852-.635-.593-.015-1.188-.003-2.027-.003.146-.46.246-.767.349-1.09.599 0 1.076.006 1.554-.003.427-.008.86-.118.892-.604.028-.468-.356-.706-.79-.725a38.247 38.247 0 0 0-2.395-.019c-.403.008-.705.246-.731.656-.088 1.391-.182 2.785-.191 4.178-.004.582.312 1.128.96 1.212.787.1 1.59.131 2.38.09.22-.01.544-.349.604-.59.104-.423-.231-.656-.63-.697-.436-.044-.878-.018-1.316-.055-.565-.05-.74-.354-.515-1.009.638 0 1.269.027 1.896-.01M154.92 189.001c-.176-.007-.444.188-.524.363-.112.238-.09.54-.111.815-.031.375-.05.751-.091 1.397-.607-.822-1.035-1.429-1.492-2.012-.297-.377-.633-.784-1.19-.619-.578.171-.577.712-.582 1.186-.012 1.114 0 2.23.023 3.343.01.462-.077 1.017.56 1.162.416.095.672-.314.738-1.153.046-.574.064-1.15.093-1.725l.313-.163c.06.15.101.307.181.444.362.618.733 1.231 1.102 1.845.194.325.44.59.858.507.428-.086.543-.427.56-.808.042-1.194.083-2.387.115-3.58.006-.198.018-.427-.072-.586-.102-.18-.31-.409-.48-.416M50.837 193.696c-.385-.072-.797.016-1.193-.02-.681-.062-.728-.157-.65-1.157.666-.046 1.262-.056 1.849-.138.379-.052.737-.295.605-.72-.072-.234-.402-.48-.657-.54-.42-.098-.883 0-1.31-.08-.214-.04-.39-.293-.582-.449.17-.18.309-.453.514-.519.414-.132.883-.094 1.29-.238.254-.089.573-.354.622-.59.089-.425-.291-.615-.667-.686-.191-.036-.397-.013-.595.003-.397.032-.793.085-1.191.117-.986.08-1.29.307-1.348 1.306a27.614 27.614 0 0 0-.002 3.593c.03.414.345 1.016.686 1.157.882.365 1.853.476 2.807.147.35-.12.565-.398.429-.733-.083-.206-.377-.41-.607-.453M32.82 191.773l.251-1.162.567 1.162h-.818zm1.61-1.749c-.193-.55-.594-.988-1.224-1.005-.679-.017-1.11.43-1.35 1.014-.5 1.217-.97 2.446-1.429 3.678-.129.346-.153.741.26.934.395.185.745-.01.896-.364.486-1.136 1.378-1.156 2.406-.972.141.34.233.698.43.984.111.162.41.304.597.275.19-.028.395-.25.501-.44.086-.153.091-.4.038-.576a82.6 82.6 0 0 0-1.125-3.528zM81.99 191.903l.166-.727c.479.377.573.664-.165.727m1.439-1.86a2.585 2.585 0 0 0-.54-.779c-.501-.494-1.226-.473-1.511.153-.658 1.444-1.21 2.937-1.754 4.43-.063.173.139.58.319.666.18.086.553-.024.724-.178.286-.257.479-.618.702-.923.595-.06 1.144-.118 1.785-.185.235.378.382.717.624.962.134.137.459.208.638.144s.355-.318.402-.519c.049-.213-.013-.479-.1-.692a93.11 93.11 0 0 0-1.29-3.08M107.557 191.323c-.348-.086-.719-.128-1.036-.28-.179-.087-.378-.36-.372-.542.007-.184.231-.469.408-.512.326-.079.698-.06 1.031.01.217.043.385.293.603.37.161.058.451.054.537-.047.131-.154.24-.457.172-.622a1.717 1.717 0 0 0-.573-.729c-.895-.627-2.494-.346-3.16.52-.589.763-.498 1.756.285 2.318.377.271.852.416 1.293.588.221.086.51.043.69.17.165.113.33.393.303.57-.025.162-.32.414-.475.398-.374-.036-.78-.134-1.085-.34-.24-.163-.346-.523-.48-.742-.908.595-1.003.82-.667 1.335.535.821 1.35 1.102 2.281 1.034 1.026-.075 1.705-.737 1.756-1.638.052-.924-.505-1.612-1.51-1.86M91.874 192.451c-.211-.226-.405-.467-.627-.724.183-.235.323-.422.47-.604.324-.4.698-.773.958-1.213.109-.187.076-.659-.057-.744-.213-.136-.591-.138-.847-.047-.238.084-.403.366-.606.555-.246.231-.498.456-.856.783-.093-.48-.126-.789-.214-1.08-.11-.365-.346-.72-.752-.595-.23.072-.374.44-.541.684-.038.056-.016.156-.018.235-.005 1.31-.011 2.618-.013 3.928 0 .118-.024.276.04.348.193.22.4.51.65.57.155.035.465-.259.584-.472.155-.278.188-.623.312-1.08.543.494.94.878 1.36 1.232.344.287.764.593 1.148.15.356-.412.075-.823-.236-1.16-.243-.263-.511-.504-.755-.766M146.175 193.582c-.237-.104-.549-.03-.826-.056-.304-.028-.606-.081-.923-.125v-1c.43-.043.813-.084 1.2-.12.454-.043 1.028.11 1.122-.581.06-.431-.289-.595-1.196-.625-.347-.011-.694-.042-.988-.06-.238-.486-.068-.72.3-.806.31-.072.632-.082.95-.11.472-.04.855-.178.923-.917-.053-.03-.19-.17-.333-.173-.907-.024-1.817-.052-2.72.005-.172.01-.442.385-.459.607a75.144 75.144 0 0 0-.186 4.055c-.01.464.246.902.735.97.82.115 1.653.17 2.48.148.194-.005.538-.42.525-.63-.01-.211-.35-.471-.604-.582M43.631 189.227c-.399-.146-.715.052-.882.412-.267.577-.47 1.184-.743 1.758-.192.402-.457.77-.799 1.334-.253-.593-.418-.943-.554-1.304-.251-.67-.472-1.352-.729-2.02-.202-.524-.496-.929-1.355-.543.057.446.05.884.176 1.28.338 1.06.725 2.104 1.113 3.147.095.257.235.513.412.72.515.602 1.452.638 1.84-.044.704-1.238 1.284-2.548 1.874-3.846.155-.342.065-.74-.353-.894M172.553 191.428c-.304-.171-.679-.212-1.017-.322-.278-.091-.552-.196-.892-.318.683-1.005 1.486-.047 2.127-.32.155-.776.07-1.04-.494-1.221-.747-.241-1.502-.23-2.2.183-.818.484-.998 1.59-.308 2.249.294.28.75.403 1.147.558.381.148.78.244 1.396.432-.332.35-.416.505-.545.564-.615.283-1.15.168-1.622-.338-.238-.256-.623-.363-.829-.043-.138.213-.096.603-.013.876.061.199.3.37.495.496.782.504 2.207.402 2.943-.188.913-.73.833-2.033-.188-2.608M17.908 188.683c-.178-.13-.45-.182-.68-.183a63.776 63.776 0 0 0-2.513.045c-.156.004-.346.026-.458.116-.224.183-.529.396-.575.64-.07.37.27.525.62.568.31.037.616.084 1.027.141 0 .355.002.662 0 .97-.009 1.037-.033 2.075-.02 3.112.003.434.18.806.693.8.523-.009.643-.394.653-.828.021-.918.018-1.837.057-2.753.02-.456.108-.909.167-1.377.374-.028.61-.044.846-.063.356-.029.668-.18.62-.567-.03-.227-.24-.476-.437-.62M123.225 188.864c-.899-.216-1.84-.272-2.687.14-.286.14-.512.613-.57.965-.135.825-.159 1.668-.21 2.505a7.716 7.716 0 0 0-.004 1.197c.041.43.243.794.746.766.45-.025.566-.365.59-.762.022-.345.074-.688.12-1.096.484-.036.874-.065 1.264-.096.44-.035.814-.168.772-.7-.035-.453-.41-.573-.776-.595-.385-.022-.772.035-1.265.064.096-1.061.096-1.058.823-1.131.395-.041.802-.048 1.178-.16.192-.057.465-.331.448-.476-.03-.23-.237-.575-.429-.621M58.664 193.707c-.591-.017-1.184-.004-1.988-.004 0-.67-.011-1.131.003-1.592.026-.874.082-1.747.094-2.62.006-.391-.173-.717-.615-.738-.452-.021-.584.338-.691.692a.43.43 0 0 0-.016.118c-.03 1.47-.097 2.942-.07 4.41.013.716.349 1.014 1.055 1.039.752.026 1.509-.043 2.263-.084.39-.021.718-.161.707-.627-.011-.47-.36-.583-.742-.594M137.05 188.783c-.819.087-.916.51-.393 1.183.175.226.275.54.321.828.055.35-.026.722.031 1.072.143.872.053 1.649-.722 2.133.032.578.383.672.76.63.624-.067 1.388.26 1.794-.526-.615-1.371-.94-3.318.184-4.76-.45-.878-1.274-.635-1.975-.56"/>
        <g transform="translate(0 .078)">
            <mask id="b" fill="#fff">
                <use xlink:href="#a"/>
            </mask>
            <path fill="#362B24" d="M182.26 134.846c-.965-.123-1.548-.69-2.175-1.295-.746-.719-1.67-1.303-2.254-2.132-.817-1.163-1.829-2.106-2.817-3.089-.363-.362-.75-.703-.932-.872V113.387c.374-.116.64-.19.902-.282 1.42-.495 1.811-1.056 1.802-2.583-.003-.4.007-.803-.036-1.199-.109-1.019-.629-1.497-1.64-1.533-.388-.014-.775-.002-1.224-.002v-3.73c.557-.207 1.228-.316 1.223-1.01-.009-.8-.792-.752-1.342-.984v-1.019c.573-.295 1.318-.372 1.22-1.188-.117-.954-1.067-.62-1.639-.913-.032-.219-.07-.41-.09-.604-.123-1.197-.427-1.544-1.468-1.664-1.28-.148-1.74.108-2.147 1.2-.17.454-.962 1.498-1.385 1.856-.082.07-.11.204-.233.45.361.243.726.487 1.172.785l-.177 1.597c-.295.062-.558.056-.744.172-.248.155-.594.395-.608.617-.014.23.277.535.508.706.24.177.57.233.811.323l.161 3.542c-.552 0-1.099-.018-1.646.004-1.008.04-1.19.285-1.436 1.241-.268 1.041-.072 2.054.05 3.066.033.265.413.568.703.703.491.23 1.04.34 1.534.49 0 1.372-.016 2.648.005 3.924.02 1.396.087 2.791.105 4.188.004.324-.1.65-.142.89-1.51-.817-2.89-1.61-4.312-2.324-4.157-2.086-8.465-2.863-13.12-1.913-2.665.544-5.037 1.483-7.139 3.168-.226.182-.494.314-.833.525 0-.464-.003-.777.001-1.09.012-1.08.128-2.169.02-3.235-.188-1.84-.227-3.662.017-5.496.27-2.018-.26-2.702-2.303-2.932-1.906-.214-3.803-.178-5.729-.022-2.009.162-4.053-.119-6.082-.207l-.124-.288c.826-.792 1.642-1.595 2.48-2.372.554-.513 1.163-.969 1.712-1.487.495-.465.913-1.012 1.413-1.468 3.283-2.987 5.836-6.554 8.165-10.292 1.307-2.1 2.481-4.285 3.787-6.388 2.018-3.253 3.363-6.802 4.515-10.415.834-2.619 1.42-5.319 2.083-7.99.853-3.432 1.01-6.955 1.2-10.459a48.157 48.157 0 0 0-.478-9.793c-.37-2.448-.735-4.892-1.57-7.239-.16-.449-.215-.934-.349-1.393a65.872 65.872 0 0 0-.808-2.616c-.179-.528-.448-1.025-.63-1.552-1.178-3.373-2.789-6.543-4.749-9.51-1.993-3.014-4.516-5.626-7.195-8.016-2.313-2.063-4.899-3.835-7.452-5.61-2.095-1.456-4.312-2.734-6.488-4.073-.369-.228-.79-.378-1.196-.544-.775-.317-1.546-.648-2.336-.925a521.513 521.513 0 0 0-6.45-2.216 42.274 42.274 0 0 0-6.613-1.633c-2.872-.476-5.72-1.097-8.582-1.635C98.75.91 98.3.918 97.862.928c-2.915.07-5.842.013-8.739.28-1.928.176-3.85.573-5.776.871-1.887.291-3.724.895-5.603 1.256-5.568 1.071-10.828 3.041-15.94 5.43-1.407.656-2.728 1.498-4.082 2.265-1.88 1.065-3.569 2.405-5.288 3.7-1.372 1.032-2.786 2.03-4.034 3.201-2.356 2.211-4.697 4.456-6.363 7.28-.12.204-.289.382-.442.566-2.217 2.673-3.74 5.755-5.138 8.894-1.119 2.511-2.106 5.082-3.134 7.633a17.242 17.242 0 0 0-.695 2.035c-.75 2.855-1.384 5.745-2.227 8.572-1.094 3.666-.964 7.423-1.048 11.165-.042 1.834.057 3.678.21 5.507.155 1.867.434 3.724.708 5.578.06.404.37.765.497 1.167.291.911.511 1.846.811 2.754 1.315 3.976 2.541 7.985 4.007 11.905 1.144 3.06 2.492 6.055 3.936 8.987 1.428 2.895 3.09 5.676 4.65 8.506.097.174.215.336.321.506l2.302 3.712c-1.4.198-2.695.487-3.999.543-2.953.127-5.91.152-8.867.19-1.117.014-2.237-.104-3.353-.072-1.5.044-1.866.477-2.233 1.943-.624 2.49-1.446 4.902-3.189 6.886-.57.648-.577 1.17.002 1.81.341.376.765.71 1.212.952.587.32 1.233.53 1.887.8v2.97c-.584-.156-.584-.156-.726-.594-.346-1.066-.64-1.286-1.717-1.285-.997.002-1.259.207-1.602 1.24-.095.284-.104.66-.636.603-.093-.319-.159-.67-.3-.99-.105-.24-.296-.612-.468-.623-.7-.044-1.427-.06-2.109.082-.638.134-.737.763-.799 1.342-.01.103-.115.197-.203.337l-.938-.052c-.075-.234-.169-.417-.19-.608-.305-2.819-.828-5.617-.757-8.472.02-.794-.068-1.597-.167-2.388-.259-2.058-.713-4.092-.607-6.19.03-.59-.088-1.194-.178-1.785-.33-2.169-.685-4.335-1.018-6.505-.508-3.316-.867-6.666-1.979-9.854-.498-1.428-1.032-2.866-1.754-4.187-.857-1.567-2.768-1.745-4.082-.515-.653.611-1.126 1.34-1.303 2.242-.36 1.842-.792 3.671-1.099 5.522-.62 3.743-1.264 7.486-1.739 11.25-.526 4.16-.862 8.343-1.304 12.514-.37 3.494-.796 6.983-1.15 10.48-.159 1.545-.202 3.103-.299 4.686-.204.161-.442.313-.635.508-.847.858-.58 1.963.573 2.35.297.098.626.125.943.142 4.356.228 8.711.176 13.068.022 3.716-.13 7.434-.219 11.151-.282a219.48 219.48 0 0 1 6.837.015c4.598.063 9.196.147 13.793.235.878.016 1.756.135 2.632.123 1.998-.028 3.994-.109 5.991-.167.24-.007.483.02.718-.016.837-.126 1.414-.715 1.492-1.492.078-.778-.373-1.456-1.18-1.744-.333-.118-.679-.197-1.095-.316.062-1.549.207-3.064.16-4.572-.046-1.493-.378-2.973-.394-4.46l1.145-.342a40308.7 40308.7 0 0 0 8.506 8.733c-.644.271-1.15.49-1.662.697-.837.34-1.54.861-2.065 1.59-1.859 2.58-1.258 6.67.528 8.62 1.191 1.298 2.577 2.428 4.27 3.024 1.918.674 3.845 1.378 5.824 1.812 4.438.976 8.831.613 13.091-.97 2.075-.772 3.838-2.02 4.804-4.096.364-.782.482-1.677.733-2.513.738-2.459-.486-4.356-2.163-5.483-.346-.233-.689-.47-1.124-.768.296-.182.451-.3.624-.38 1.697-.798 3.428-1.53 5.09-2.393 3.331-1.729 6.677-3.443 9.548-5.922.36-.309.785-.544 1.2-.779 1.35-.768 2.727-1.489 4.057-2.287 1.402-.842 2.761-1.754 4.141-2.633 2.456-1.564 4.913-3.126 7.372-4.686.161-.103.338-.184.537-.292 0 1.535.002 2.997-.002 4.46 0 .232-.025.463-.04.734-.227.057-.412.132-.602.15-1.39.122-2.784.23-4.175.35-1.584.137-1.918.494-2.054 2.055-.285 3.292-.59 6.581-.889 9.9-.313.025-.549.052-.784.062-3.314.14-6.629.281-9.942.415-1.839.074-3.68.095-5.514.222-.7.048-1.416.251-2.07.516-.697.282-.977.895-.893 1.542.081.63.541 1.133 1.272 1.252.548.09 1.115.103 1.672.086 2.436-.077 4.871-.18 7.307-.269 1.758-.064 3.516-.135 5.273-.177 1.48-.034 2.966-.129 4.437-.024a63.13 63.13 0 0 0 8.742-.002c1.514-.1 3.036-.179 4.552-.152 3.397.06 6.793.223 10.19.284 3.834.068 7.67.06 11.505.104 2.598.03 5.196.094 7.793.141 3.235.06 6.467.082 9.703.2 5.431.196 10.874.071 16.312.08.2 0 .402.004.598-.029.854-.148 1.465-.822 1.5-1.634.031-.744-.465-1.566-1.272-1.668" mask="url(#b)"/>
        </g>
        <path fill="#EE404A" d="M14.232 167.707c-.719-.253-1.435-.359-1.976-.725-1.445-.977-2.934-1.869-4.192-3.153-1.29-1.317-2.229-2.827-3.034-4.413-.625-1.23-.986-2.61-1.335-3.958-.39-1.5-.756-3.028-.909-4.566-.152-1.535-.03-3.098-.019-4.648.003-.318.057-.636.077-.954.071-1.157.362-1.549 1.458-1.663a72.698 72.698 0 0 1 4.3-.3c.796-.036 1.598.03 2.397.05 1.731.041 2.156.562 2.034 2.302-.09 1.27-.17 2.555-.074 3.82.115 1.506.3 3.03.68 4.487.632 2.425 2.164 4.051 4.715 4.565 2.016.406 4.172-.593 5.181-2.41.734-1.32 1.077-2.769 1.147-4.246.1-2.11.057-4.227.065-6.34.005-1.527.392-2.07 1.91-2.179a81.807 81.807 0 0 1 6.223-.209c1.4.006 1.867.478 1.997 1.874a25.96 25.96 0 0 1 .105 3.592c-.147 3.077-.627 6.111-1.353 9.105-.065.27-.15.55-.292.784-1.074 1.773-1.985 3.685-3.3 5.26-1.257 1.504-2.673 3.02-4.646 3.671-1.213.401-1.527 1.177-1.51 2.363.043 3.197-.002 6.395-.014 9.593-.002.28.005.563-.034.838-.127.893-.487 1.29-1.389 1.375-2.106.197-4.217.306-6.328.053-.787-.095-1.218-.48-1.297-1.317-.177-1.868-.35-3.74-.424-5.613-.083-2.116-.054-4.236-.079-6.354-.002-.195-.047-.39-.084-.684M105.55 167.602c-2.08-.205-3.48-1.436-4.858-2.533-1.411-1.124-2.644-2.481-3.578-4.127-1.895-3.34-2.76-6.965-3.175-10.695-.202-1.802.067-3.663.202-5.491.052-.722.527-1.061 1.471-1.136 1.63-.128 3.264-.202 4.9-.268a22.499 22.499 0 0 1 2.156.036c1.178.067 1.566.474 1.602 1.629.008.279.013.562-.02.838-.313 2.689-.085 5.346.578 7.955.644 2.53 2.177 4.227 4.828 4.753 1.868.37 4.013-.511 4.96-2.164.45-.785.784-1.67.996-2.55.37-1.553.526-3.123.36-4.751-.145-1.42.03-2.871.085-4.31.023-.697.448-1.111 1.096-1.243.78-.158 1.572-.308 2.364-.344a66.926 66.926 0 0 1 4.436-.05c1.602.036 2.002.464 2.198 2.068.322 2.645.053 5.26-.386 7.866a128.532 128.532 0 0 1-.81 4.227c-.087.427-.174.885-.39 1.25-1.061 1.78-1.992 3.68-3.306 5.258-1.257 1.507-2.695 2.994-4.66 3.652-1.165.39-1.481 1.148-1.475 2.273.022 3.237-.014 6.474-.03 9.71 0 .24.006.482-.02.72-.088.912-.434 1.399-1.311 1.423-1.67.045-3.329.515-5.013.132-.305-.07-.636-.03-.956-.041-1.233-.044-1.647-.423-1.77-1.618-.38-3.661-.487-7.333-.475-11.011v-1.458M52.08 166.78c-.042-.01-.084-.02-.126-.028 0-.24.024-.481-.004-.717-.263-2.248-1.37-3.08-3.33-3.152-1.218-.045-2.255.323-2.972 1.42-.726 1.112-1.04 2.333-1.006 3.623.053 2.03 1.598 2.998 3.057 3.345 1.484.354 3.21-.651 3.818-2.195.286-.727.38-1.528.563-2.296zm-2.194-13.697c.838.04 1.679.052 2.513.132.513.048 1.067.099 1.513.325 1.604.815 3.139 1.783 4.32 3.148 1.419 1.638 2.414 3.557 3.18 5.584.14.37.267.763.308 1.154.225 2.147.38 4.327-.047 6.436-.367 1.814-.875 3.65-2.074 5.173-.221.279-.371.613-.562.917-.212.337-.365.759-.664.987-1.327 1.01-2.605 2.144-4.073 2.897-1.995 1.024-4.233 1.372-6.472 1.563-.12.01-.244.03-.358.007-1.87-.385-3.77-.668-5.434-1.706-.271-.17-.513-.401-.803-.52-1.657-.672-2.666-2.13-3.965-3.236a.322.322 0 0 1-.076-.092c-.956-1.742-2.055-3.426-2.211-5.491-.006-.08.009-.166-.017-.238-.628-1.785-.215-3.542.114-5.31.305-1.643 1.11-3.078 1.9-4.496.913-1.638 2.119-3.085 3.52-4.352 1.43-1.294 3.146-2.073 4.985-2.482 1.432-.318 2.926-.354 4.392-.515l.01.115zM143.345 166.793l-.15-.035c0-.319.04-.643-.008-.954-.145-.974-.488-1.878-1.36-2.418-1.766-1.094-4.133-.477-5.17 1.317-.55.955-.737 2.005-.757 3.098-.038 2.06 1.602 3.132 3.048 3.47 1.44.334 3.174-.625 3.768-2.085.31-.757.426-1.593.63-2.393m-17.524.79c.462-1.759.543-3.62 1.423-5.364.705-1.4 1.466-2.764 2.391-3.99 2.21-2.927 5.136-4.782 8.875-5.03 1.748-.115 3.511-.019 5.266.027.47.013.996.09 1.39.32 1.751 1.017 3.513 2.005 4.762 3.714 1.02 1.398 1.896 2.857 2.485 4.474.281.776.475 1.6.585 2.42.225 1.662.201 3.336.01 5.006-.033.277.018.578-.07.832-.597 1.723-.896 3.57-2.09 5.05-.223.275-.368.613-.559.916-.213.338-.37.757-.669.985-1.327 1.01-2.604 2.15-4.074 2.894-1.997 1.012-4.23 1.381-6.472 1.562-.118.01-.243.03-.357.006-1.868-.389-3.77-.664-5.436-1.705-.438-.275-.904-.508-1.333-.799a19.435 19.435 0 0 1-1.524-1.14c-.459-.385-.876-.818-1.309-1.23-.2-.194-.442-.365-.59-.594-1.04-1.616-1.939-3.303-2.285-5.217-.184-1.018-.277-2.052-.419-3.137M155.506 161.87c0-1.795-.005-3.592.006-5.388.001-.316.04-.638.113-.945.27-1.141.536-1.374 1.72-1.43 2.113-.102 4.228-.191 6.344-.261 1.179-.04 1.484.322 1.458 1.485a842.026 842.026 0 0 0-.191 10.777 8.79 8.79 0 0 0 .29 2.369 5.15 5.15 0 0 0 .9 1.797c.976 1.243 2.594 1.213 3.608-.005.954-1.146 1.327-2.538 1.583-3.961.39-2.17.52-4.357.495-6.563-.017-1.473.112-2.947.174-4.421.029-.645.387-.921 1.008-.921 1.317 0 2.637-.033 3.952.002 1.077.029 2.153.137 3.228.212 1.145.08 1.757.55 1.79 1.686.054 1.872.004 3.752-.089 5.624-.059 1.194-.262 2.38-.428 3.568-.19 1.382-.279 2.799-.659 4.13-.465 1.635-.843 3.33-1.887 4.757-.397.544-.571 1.275-1.026 1.749-1.53 1.594-2.817 3.54-5.243 3.954-1.531.95-3.301.857-4.986 1.094-1.726.242-5.255-.98-6.572-2.138-.358-.316-.786-.557-1.125-.89a27.845 27.845 0 0 1-1.703-1.817 7.233 7.233 0 0 1-.874-1.284c-.373-.696-.766-1.4-1.006-2.146-1.025-3.17-1.03-6.437-.815-9.718.028-.437.004-.877.004-1.315h-.069zM64.28 161.702c0-1.678-.001-3.355.003-5.035 0-.319-.011-.643.04-.955.207-1.22.58-1.553 1.825-1.61 2.074-.096 4.149-.182 6.224-.254 1.222-.043 1.5.238 1.488 1.437-.031 2.913-.072 5.826-.09 8.74-.008 1.232-.008 2.468.06 3.698a4.24 4.24 0 0 0 1.087 2.61c1.007 1.14 2.559 1.137 3.549-.023 1.026-1.2 1.389-2.68 1.656-4.183.47-2.646.507-5.318.462-7.997-.016-.953.11-1.908.18-2.863.043-.574.366-.86.94-.858 1.438.004 2.874-.01 4.31.024.878.02 1.755.175 2.63.164 1.376-.02 2.094.54 2.132 2.126.052 2.155.09 4.311-.245 6.457-.326 2.088-.48 4.212-.943 6.267-.382 1.693-.83 3.416-1.886 4.88-.231.32-.362.715-.598 1.032-1.476 1.986-2.91 4.016-5.523 4.68-.73.184-1.403.623-2.136.757-1.212.221-2.482.523-3.672.368-2.154-.28-4.363-.617-6.056-2.242-.23-.22-.5-.398-.754-.589-.128-.096-.27-.174-.398-.267-1.098-.792-3.135-3.765-3.435-5.09-.377-1.667-.93-3.3-.87-5.05.045-1.315.005-2.632.003-3.948v-2.276h.018"/>
        <path fill="#F1706C" d="M74.343 191.684c-1.512.852-1.566.847-2.8-.202-.395.233-.279.617-.263.954.024.479.1.955.122 1.433.018.396-.119.728-.574.765-.444.035-.634-.277-.74-.645a1.69 1.69 0 0 1-.066-.474c.007-1.118.002-2.238.047-3.355.02-.476.1-1.01.656-1.172.608-.18.952.26 1.282.679.262.332.533.658.857 1.055.41-.515.696-.945 1.052-1.307.74-.751 1.622-.544 1.732.493.148 1.384.088 2.792.06 4.188-.004.184-.315.459-.533.522-.372.106-.596-.18-.659-.526-.064-.351-.077-.713-.1-1.07-.03-.43-.048-.858-.073-1.338M161.117 193.503c.627-.09 1.137-.106 1.61-.244.82-.239 1.145-.717 1.119-1.478-.024-.69-.467-1.336-1.155-1.501-.477-.115-.99-.083-1.574-.122v3.345zm-1.304-1.784c0-.598-.013-1.196.004-1.793.019-.588.278-.945.92-1.034 1.434-.2 2.755-.188 3.828 1.038s.984 3.947-1.252 4.571a7.528 7.528 0 0 1-2.231.289c-.914-.029-1.242-.484-1.25-1.4-.005-.557-.001-1.114-.001-1.671h-.018zM23.584 191.334c.487-.046.924-.019 1.306-.15.187-.066.36-.42.372-.652.007-.152-.264-.406-.454-.458-.358-.099-.748-.086-1.224-.128v1.388zm2.675.75c.212.628.4 1.068.503 1.53.079.355.03.743-.393.894-.433.155-.661-.129-.843-.465l-.057-.105c-.576-1.058-.576-1.058-1.92-.947-.08.313-.104.684-.267.977-.135.243-.424.542-.66.556-.406.023-.603-.339-.598-.743.009-.796.022-1.592.059-2.386.03-.637.102-1.27.147-1.905.037-.525.314-.806.835-.815.636-.01 1.279-.052 1.907.02 1.415.16 2.113 1.364 1.599 2.693-.1.257-.225.503-.312.696zM128.953 191.535c.442 0 .816.081 1.127-.025.252-.086.577-.387.593-.61.014-.21-.296-.546-.536-.644-.33-.134-.731-.095-1.184-.139v1.418zm2.2.906c.208.417.419.797.588 1.195.16.38.056.738-.31.922-.355.18-.61-.07-.784-.359-.381-.624-.802-1.179-1.694-1.229-.07.303-.133.562-.191.822-.092.41-.24.831-.735.792-.572-.045-.617-.532-.621-.989-.002-.2.017-.399.024-.599.042-1.075.074-2.152.128-3.227.042-.824.149-.947 1.002-.965.669-.015 1.375-.058 2.004.122 1.57.448 1.942 1.734.96 3.05-.116.155-.242.305-.37.465zM98.046 191.134c.841 0 1.435-.011 2.028.004.422.01.838.113.85.634.015.514-.397.672-.81.696-.627.038-1.258.01-1.898.01-.223.655-.05.96.518 1.009.436.038.879.01 1.315.056.4.04.734.274.63.695-.06.242-.385.58-.605.592-.79.04-1.591.009-2.379-.091-.648-.083-.963-.63-.96-1.212.01-1.393.102-2.786.19-4.178.026-.41.328-.647.733-.656a38.19 38.19 0 0 1 2.392.019c.437.019.82.257.79.726-.029.486-.465.596-.89.604-.477.008-.956 0-1.553 0-.106.325-.205.633-.352 1.092M152.343 191.758c-.03.575-.047 1.151-.092 1.724-.067.84-.32 1.25-.738 1.154-.637-.145-.55-.7-.56-1.162a103.534 103.534 0 0 1-.023-3.344c.005-.473.003-1.014.583-1.185.555-.165.892.242 1.188.62.457.582.885 1.188 1.492 2.011.041-.646.06-1.022.091-1.397.022-.275 0-.578.11-.815.081-.175.35-.37.526-.363.17.007.38.235.481.416.09.158.077.388.072.585a355.615 355.615 0 0 1-.117 3.58c-.014.382-.13.723-.557.808-.42.084-.666-.18-.86-.506-.367-.614-.74-1.227-1.1-1.845-.08-.137-.123-.296-.183-.444-.104.054-.209.11-.313.163M48.994 192.52c-.078 1-.031 1.095.65 1.157.396.036.808-.053 1.193.02.23.042.523.247.607.452.136.335-.078.612-.43.733-.953.33-1.924.218-2.807-.147-.34-.14-.655-.743-.685-1.157a27.614 27.614 0 0 1 .002-3.593c.059-.999.362-1.227 1.348-1.306.398-.032.794-.085 1.19-.117.199-.016.404-.039.596-.003.376.071.756.261.667.687-.05.236-.368.5-.622.59-.407.143-.877.105-1.29.237-.206.066-.345.34-.514.52.193.155.368.407.582.448.427.081.89-.017 1.31.08.255.06.584.307.657.54.132.426-.226.668-.605.721-.587.081-1.183.091-1.85.137M33.638 191.773l-.567-1.162-.251 1.162h.818zm.35 1.536c-1.026-.184-1.92-.163-2.404.972-.151.353-.502.55-.897.364-.413-.193-.39-.588-.26-.935.459-1.232.928-2.46 1.429-3.677.24-.583.67-1.03 1.35-1.013.63.016 1.03.453 1.225 1.004a84.55 84.55 0 0 1 1.124 3.528c.054.177.049.423-.038.577-.106.189-.311.412-.501.44-.187.029-.485-.113-.597-.275-.197-.287-.29-.645-.43-.986zM82.156 191.177l-.165.727c.738-.064.644-.35.165-.727m.999 2.05l-1.785.186c-.223.305-.416.665-.702.923-.171.154-.544.263-.724.178-.18-.086-.382-.494-.32-.667.545-1.492 1.097-2.985 1.755-4.43.285-.625 1.01-.647 1.512-.153.222.218.413.494.539.779a93.11 93.11 0 0 1 1.29 3.08c.086.213.148.478.099.69-.047.202-.223.456-.402.52-.18.065-.504-.007-.638-.143-.242-.246-.39-.584-.624-.962M105.699 192.454c.133.22.239.58.479.741.304.206.71.305 1.084.341.156.014.45-.236.476-.398.027-.177-.14-.457-.304-.572-.18-.125-.467-.083-.687-.168-.443-.172-.916-.317-1.294-.588-.783-.562-.874-1.555-.285-2.32.666-.864 2.263-1.146 3.16-.518.246.172.46.451.572.728.067.166-.04.47-.172.622-.087.101-.376.104-.537.047-.22-.077-.387-.326-.602-.37-.334-.07-.705-.088-1.033-.009-.175.042-.4.328-.406.512-.008.181.193.455.37.541.319.153.689.194 1.037.281 1.005.25 1.564.935 1.512 1.861-.052.901-.73 1.562-1.757 1.637-.932.07-1.746-.212-2.281-1.034-.336-.516-.241-.739.668-1.334M90.308 190.457c.36-.327.611-.552.857-.782.204-.19.368-.472.606-.556.255-.09.634-.088.848.048.131.084.165.556.054.743-.259.44-.632.812-.957 1.214-.147.181-.287.368-.469.603.221.257.416.498.627.724.245.262.511.503.754.766.312.337.592.75.237 1.16-.384.443-.806.138-1.148-.15-.422-.353-.818-.737-1.36-1.23-.124.456-.157.801-.312 1.078-.119.213-.429.508-.585.471-.25-.059-.457-.349-.65-.569-.064-.072-.04-.23-.039-.348.002-1.309.008-2.618.013-3.927 0-.08-.02-.179.017-.235.168-.245.312-.613.542-.684.406-.126.642.23.751.594.088.292.122.6.214 1.08M144.426 192.401v1c.317.043.62.096.923.124.277.026.59-.048.826.056.253.112.593.371.605.584.012.21-.332.625-.527.63-.826.02-1.66-.034-2.479-.148-.49-.069-.744-.507-.735-.971.026-1.352.087-2.706.186-4.054.016-.224.287-.598.46-.609.902-.056 1.812-.029 2.72-.004.141.005.28.145.332.174-.068.739-.45.877-.924.917-.317.026-.64.037-.949.108-.368.087-.539.32-.3.808.295.018.641.048.988.059.907.03 1.255.195 1.196.625-.094.692-.668.538-1.122.58-.387.037-.77.078-1.2.121M38.569 188.864c.858-.387 1.152.02 1.354.543.258.668.48 1.35.73 2.02.136.361.3.71.553 1.304.343-.565.607-.932.8-1.335.273-.573.475-1.18.742-1.757.168-.36.483-.558.883-.412.417.153.508.552.352.894-.59 1.298-1.17 2.608-1.873 3.845-.389.683-1.325.647-1.84.045a2.389 2.389 0 0 1-.413-.72 70.383 70.383 0 0 1-1.112-3.148c-.127-.395-.12-.833-.176-1.279M172.312 192.668c-.615-.188-1.016-.284-1.395-.431-.398-.155-.854-.279-1.148-.558-.688-.66-.51-1.766.308-2.25.698-.411 1.454-.424 2.201-.183.562.181.647.445.492 1.222-.64.273-1.442-.685-2.126.32.34.12.614.226.893.317.338.11.713.151 1.016.323 1.021.575 1.102 1.877.19 2.607-.739.59-2.162.692-2.946.189-.196-.126-.433-.297-.494-.496-.083-.274-.125-.663.012-.877.206-.32.592-.213.83.043.473.506 1.008.621 1.622.338.128-.059.213-.214.545-.564M15.329 190.01c-.411-.057-.718-.103-1.027-.141-.35-.043-.69-.2-.62-.568.046-.243.35-.456.576-.64.11-.09.3-.111.457-.116a65.768 65.768 0 0 1 2.512-.045c.23.002.503.053.68.183.199.145.408.395.437.62.049.387-.263.539-.62.568-.235.019-.471.035-.845.063-.06.468-.148.92-.167 1.377-.04.917-.036 1.835-.057 2.753-.01.434-.13.82-.653.827-.513.007-.69-.365-.694-.8-.011-1.036.012-2.074.02-3.111.003-.307 0-.614 0-.97M121.206 191.252c.492-.03.88-.086 1.264-.064.367.022.742.142.777.595.042.532-.334.665-.772.7l-1.264.096c-.046.409-.1.75-.12 1.096-.025.398-.142.738-.59.762-.503.028-.705-.336-.746-.766a7.594 7.594 0 0 1 .004-1.197c.05-.837.075-1.68.21-2.505.057-.352.284-.824.57-.964.847-.413 1.787-.357 2.687-.141.192.046.399.392.428.62.018.146-.256.42-.447.477-.376.112-.783.12-1.18.16-.725.073-.725.07-.821 1.13M56.676 193.702c.804 0 1.396-.012 1.988.004.382.011.73.124.742.594.01.466-.316.607-.708.628-.754.04-1.51.11-2.262.083-.707-.025-1.042-.322-1.055-1.038-.028-1.469.04-2.94.069-4.41a.474.474 0 0 1 .017-.119c.107-.354.239-.712.69-.69.443.02.62.345.616.736-.012.874-.068 1.747-.095 2.62-.013.462-.002.923-.002 1.592M139.025 189.344c-1.125 1.441-.799 3.387-.184 4.76-.406.785-1.17.458-1.795.526-.375.04-.727-.053-.758-.632.774-.483.864-1.26.721-2.133-.056-.349.025-.722-.031-1.072-.046-.288-.145-.602-.321-.827-.523-.674-.427-1.096.394-1.183.701-.075 1.523-.319 1.974.561"/>
        <g transform="translate(0 .078)">
            <mask id="d" fill="#fff">
                <use xlink:href="#c"/>
            </mask>
            <path fill="#362B24" d="M171.742 98.982c.097-.31.31-.646-.125-.855-.11-.053-.467.128-.51.264-.147.479.186.586.635.59zm-.892 1.562l-.215 1.93 1.35-.07c.053-1.538.04-1.558-1.135-1.86zm1.144 7.386v-3.716l-1.231.072c-.057 1.189-.113 2.31-.172 3.522l1.403.122zm-40.481 25.117c-2.78.249-5.465-.078-8.117.153-.123.593.167.657.527.662 2.198.032 4.396.066 6.593.103.487.008.872-.108.997-.918zm-88.057-3.273l.23 4.55c.473.046.822.087 1.172.113.383.027.767.04 1.145.06.166-1.958-.895-3.974-2.547-4.723zm-1.935.172c-1.866.357-3.35 2.513-2.983 4.36.994.125 1.999.135 3.078.016 0-1.39.003-2.66-.004-3.928-.001-.15-.06-.3-.091-.448zm133.655-20.483l-7.401.232c-.034.664-.061 1.205-.095 1.845 2.597.075 5.083.7 7.496-.483v-1.594zm-3.134 16.154V113.69l-1.512-.182c-.086.23-.157.336-.162.446-.162 3.139-.32 6.279-.465 9.419-.011.222.01.538.149.66.612.543 1.1 1.257 1.99 1.583zm-146.493 2.586c-.331.595.022 1.732-1.147 1.772-.577.019-1.31.062-1.698-.248-.373-.297-.392-1.037-.596-1.673l-.95.106c-.243 1.608-.243 1.608-2.23 1.99.015.247.029.502.043.76.468.229 1.145.04 1.272.815l-1.284.579c.707.39.705.37 1.548.315a108.46 108.46 0 0 1 3.226-.154c.32-.011.72.01.684.448-.017.198-.291.453-.506.537-.284.112-.624.099-.941.11-1.226.045-2.453.077-3.668.114-.24.807.245.752.697.746 2.395-.034 4.79-.064 7.185-.1.238-.003.48-.018.714-.061.51-.092.483-.406.349-.798-.842.053-1.628.135-2.414.129-.2-.002-.4-.281-.598-.433.186-.164.35-.43.56-.474.662-.138 1.346-.168 2.01-.295.2-.038.364-.26.544-.396-.644-.212-1.192-.226-1.74-.21-1.552.048-3.105.113-4.658.16-.335.01-.71-.06-.666-.475.018-.17.355-.4.577-.44a12.633 12.633 0 0 1 1.782-.171c1.356-.05 2.713-.071 4.069-.104.403-.01.719-.092.533-.63-.128-.034-.24-.082-.352-.09-1.37-.086-1.373-.084-1.696-1.493-.078-.342-.256-.474-.65-.336zm89.482-4.147l-1.101 10.013h5.1c.534-.69-.167-.881-.368-1.246.236-.381.93-.506.6-1.15l-1.041-.228c.154-.278.31-.374.48-.424.214-.063.439-.088.798-.155-.433-.791-1.098-.493-1.611-.565-.601-.084-1.213-.09-2.046-.145 1.143-1.064 2.425-.245 3.424-.761-.194-.605-.192-.63-.51-.654-.633-.051-1.271-.057-1.906-.113-.286-.025-.566-.126-.85-.193l.008-.282c.996-.501 2.154-.036 3.147-.33.543-.78-.431-.841-.56-1.19.095-.525.986-.332.672-1.093-.962-.273-2.047.15-3.151-.216.474-.636 1.064-.531 1.59-.611.58-.088 1.163-.181 1.793-.28v-.966l-4.468.589zM36.88 134.333c-.065-2.22.88-3.844 2.26-5.261 1.68-1.725 4.96-1.915 6.544-.318 1.386 1.398 2.308 3.054 2.32 5.104.002.225.065.45.123.832l5.33-.297c.239-3.023.115-5.941.066-8.853-.265-.034-.382-.065-.497-.062-4.391.133-8.793.002-13.17.504-2.4.275-4.787-.003-7.18-.145-.864-.051-1.734-.008-2.681-.008v8.306c2.295.347 4.518.234 6.885.198zm30.13 2.185c-.392-.142-.821-.463-1.06-.357-1.057.474-2.091 1.074-2.561 2.209-.654 1.58-.145 3.486 1.244 4.526 1.142.854 2.31 1.7 3.719 2.112.496.146.98.337 1.459.537 4.717 1.972 9.416 1.694 14.11-.084 1.332-.504 2.287-1.42 3.028-2.604.92-1.473.444-3.694-1.171-4.435a15.267 15.267 0 0 0-2.115-.812c-.312-.09-.691.052-1.04.088.246.332.528.394.739.55.158.119.226.36.334.546-.197.095-.407.289-.588.266-.552-.073-1.09-.243-1.637-.35-.622-.122-1.18-.011-1.63.55.433.162.854.267 1.218.473.338.19.689.439.904.752.52.754.116 1.437-.842 1.497-.053.004-.112-.094-.215-.187l.36-.832c-.762-.933-1.838-1.188-2.822-.997-.98.19-2.022.666-2.767 1.322-1.146 1.01-2.132.888-3.146-.047-.961-.885-2.004-1.681-2.927-2.446l-1.765 1.087c.294.55.613.973 1.108 1.273.45.273.972.464 1.452 1.174-1.198-.407-2.073-.848-2.798-1.502-.624-.562-.542-1.336.127-1.864.33-.261.735-.431 1.184-.688l-.906-.758c-.598-.148-1.038.444-1.534-.091l.538-.908zm-14.442-14.561c-.336-.771-.612-1.427-.908-2.074-.23-.501-.432-1.027-.74-1.48-.584-.856-1.264-1.647-1.85-2.503-.408-.598-.92-.812-1.62-.77a154.8 154.8 0 0 1-4.412.198c-3.87.118-7.74.327-11.603-.121-.466-.054-.943-.008-1.43-.008-.788 2.753-1.365 5.537-3.117 7.89.894.652 1.812.848 2.785.845.993-.003 1.986-.046 2.979-.04 1.876.014 3.755.127 5.627.06 2.71-.098 5.416-.35 8.127-.48a87.611 87.611 0 0 1 5.866-.103c.764.015 1.49.137 2.14-.413-.321-.744-.764-1.295-1.844-1.001zm114.654 6.639c-.39.38-.641.747-.988.94-1.113.625-2.234 1.25-3.404 1.756-2.125.918-4.288 1.746-6.432 2.619-.205.083-.39.216-.584.325 4.419-.254 8.233-2.302 12.15-4.011.299.8.335.855-.063 1.122-.726.487-1.491.92-2.26 1.343-.896.497-1.814.96-2.723 1.438l.08.264c.447-.063.916-.06 1.334-.203 1.095-.375 2.163-.825 3.249-1.224.579-.213 1.169-.467 1.81-.138-.175.995-1.136 1.1-1.791 1.705 1.09.17 2 .087 2.898-.3.916-.393 1.845-.758 2.77-1.131.399-.16.803-.322 1.245-.006-.136.904-1.12.85-1.578 1.535 1.477.145 2.86.016 4.309-.184-1.23-1.141-1.828-2.757-3.208-3.69-.955.397-1.628 1.347-3.005 1.18.77-.888 1.773-1.035 2.617-1.637-.436-.395-.805-.73-1.2-1.085l-1.817 1.072c-.438.258-.74.193-.906-.462l2.072-1.064c-.947-1.117-1.033-1.14-2.156-.633-.291.132-.572.314-.878.372-.227.042-.484-.08-.754-.132.124-.946 1.05-.913 1.426-1.43-.6-.85-.6-.853-1.41-.638-.484.129-.97.344-1.573-.076l.887-1.081c-.652-1.077-1.52-1.302-2.644-.778-.49.228-1.036.286-1.576.024.269-.903 1.163-.743 1.678-1.228-.96-.693-1.92-1.115-3.093-.495-.491.259-1.032.435-1.567.59-.218.064-.481-.027-.898-.062.82-.871 1.95-.713 2.71-1.44-.336-.15-.623-.256-.892-.4-.988-.532-1.958-.508-2.978-.04-.684.314-1.428.508-2.156.716-.373.107-.795.22-1.075-.313.435-.904 1.605-.675 2.279-1.331-3.736-.888-10.365.713-11.745 2.987l1.104-.251c1.596-.36 3.192-.72 4.788-1.077.194-.043.409-.134.583-.086.199.056.468.214.512.38.043.158-.132.412-.273.569-.09.102-.291.107-.442.153-1.336.395-2.662.833-4.013 1.174-1.504.379-3.035.655-4.546 1.012-.334.079-.667.265-.941.478a54.873 54.873 0 0 0-2.117 1.768c-.217.188-.39.426-.76.839 1.418-.428 2.556-.783 3.702-1.114 1.952-.563 3.91-1.107 5.866-1.665 2.22-.634 4.434-1.294 6.663-1.896.538-.145 1.159-.294 1.673.229-.262.576-.741.739-1.252.88-1.5.418-2.997.833-4.485 1.28-4.276 1.284-8.523 2.676-12.834 3.827-1.563.418-2.544 1.343-3.516 2.51.436.054.865.07 1.257-.043a639.258 639.258 0 0 0 7.69-2.266c1.758-.53 3.504-1.096 5.257-1.64 2.665-.828 5.34-1.625 7.993-2.49.984-.32 1.91-.807 2.875-1.192.328-.131.684-.22 1.036-.251.158-.014.436.13.475.259.06.196.015.472-.09.656-.084.15-.31.237-.491.315-1.095.482-2.173 1.016-3.3 1.415a471.27 471.27 0 0 1-10.408 3.58c-3.105 1.02-6.243 1.947-9.366 2.918-.317.098-.627.222-.94.333 1.066.21 2.1.154 3.129.224 1.717.115 3.32-.335 4.907-.873 1.966-.666 3.916-1.377 5.87-2.073 2.482-.882 4.96-1.773 7.442-2.65a421.635 421.635 0 0 1 5.312-1.835c.365-.123.76-.187 1.29.294-1.825 1.184-3.825 1.615-5.65 2.418a216.85 216.85 0 0 1-5.735 2.427c-1.851.75-3.724 1.447-5.587 2.168.519.209 1.05.318 1.518.19 2.268-.616 4.56-1.186 6.768-1.982 3.04-1.095 6.01-2.38 9.013-3.578.51-.204 1.016-.5 1.863-.11zm-26.308-17.445c-1.74-.263-3.375-.302-5.004-.251-2.713.085-5.424.34-8.135.342-1.418 0-2.578.277-3.48 1.392-.048.06-.081.135-.154.255.405.505.566 1.08.27 1.652-1.036.567-.936-.62-1.42-.843-1.15.817-1.15.817-1.145 2.095 0 .12-.005.24-.021.359-.263 1.902-.4 3.807-.258 5.729.047.636.026 1.279.005 1.918-.107 3.232-.226 6.464-.334 9.697-.003.108.073.219.148.428l.968-.073.262-1.391c.58-.078 1.16-.216 1.743-.225 2.358-.034 4.716-.025 7.073-.044.292-.002.585-.075 1.044-.137-.657-.834-.435-1.612-.386-2.432h.784l.137 1.109c.709-.655 1.369-1.34 2.109-1.923.742-.587 1.418-1.168 1.3-2.348 2.015.436 2.065-1.081 2.409-2.402l1.163.314c.729-.324 1.037-.886.925-1.715-.053-.391.006-.798.013-1.198.023-1.198.066-2.396.06-3.594-.007-1.837-.05-3.673-.075-5.51-.005-.352-.001-.704-.001-1.204zM2.694 134.697c1.697.374 13.063.067 14.389-.407-.138-1.308-.255-2.654-.427-3.993-.467-3.643-1.178-7.261-1.065-10.962.01-.355-.074-.713-.117-1.07-.213-1.782-.435-3.564-.641-5.348-.3-2.614-.55-5.235-.896-7.843-.27-2.018-.675-4.018-.983-6.032-.426-2.778-1.197-5.46-2.208-8.074-.162-.42-.465-.785-.698-1.167-.86.29-1.036.91-1.162 1.542-.462 2.31-.89 4.627-1.366 6.934-.825 3.997-1.254 8.05-1.731 12.096-.472 4.007-.87 8.023-1.3 12.034-.143 1.35-.265 2.704-.434 4.05a98.869 98.869 0 0 1-.575 3.909c-.241 1.449-.523 2.89-.786 4.33zM74.027 138c1.274-.648 2.43-1.27 3.614-1.831 1.982-.941 3.989-1.83 5.972-2.767 2.56-1.212 5.129-2.411 7.654-3.691 1.85-.936 3.627-2.02 5.459-2.991 2.163-1.146 3.823-3.004 6.025-4.115 1.736-.876 3.352-1.992 5.023-3 2.392-1.441 4.862-2.772 7.163-4.348 3.494-2.393 6.868-4.963 9.983-7.85 2.34-2.17 4.618-4.406 6.993-6.535 3.224-2.89 5.652-6.39 7.892-10.041 1.274-2.075 2.44-4.217 3.74-6.276 1.98-3.14 3.262-6.572 4.33-10.092.555-1.831.94-3.713 1.444-5.561 1.269-4.656 1.709-9.418 1.846-14.217.029-.99-.15-1.986-.212-2.98-.197-3.153-.648-6.263-1.475-9.32-.765-2.822-1.923-5.493-3.091-8.161a54.392 54.392 0 0 0-1.237-2.592c-.948-1.89-1.797-3.844-3.188-5.471-1.17-1.368-2.395-2.685-3.575-4.044-1.664-1.914-3.568-3.546-5.663-4.967-.526-.358-1.055-.716-1.558-1.106-1.01-.781-1.936-1.693-3.016-2.356-2.715-1.665-5.315-3.544-8.4-4.548-2.121-.692-4.208-1.494-6.31-2.25-2.075-.744-4.248-1.072-6.392-1.538-3.994-.87-7.986-1.627-12.103-1.332-1.114.08-2.23.215-3.344.22-3.242.013-6.47.098-9.624.976-1.575.439-3.174.789-4.747 1.23-.92.26-1.815.61-2.713.94-2.247.825-4.523 1.58-6.726 2.512-4.573 1.93-8.94 4.276-13.004 7.129-1.856 1.302-3.58 2.807-5.273 4.32-1.066.953-1.955 2.1-2.942 3.145-1.57 1.659-2.913 3.495-4.148 5.406-1.52 2.349-2.947 4.744-3.66 7.503-.257.994-.784 1.917-1.16 2.883-.705 1.82-1.478 3.622-2.062 5.482a71.474 71.474 0 0 0-1.634 6.25c-.498 2.299-1.01 4.602-1.064 6.976-.067 2.916-.004 5.828.074 8.743a29.84 29.84 0 0 0 1.236 7.782 263.428 263.428 0 0 0 4.716 14.19c1.06 2.92 2.354 5.766 3.718 8.56 1.223 2.505 2.68 4.896 4.043 7.332 2.268 4.056 4.898 7.872 7.784 11.507 1.514 1.908 3.109 3.753 4.699 5.599 2.088 2.42 4.296 4.745 6.29 7.24 2.495 3.122 5.406 5.758 8.623 8.055zm54.815-29.096c2.029.087 4.073.369 6.082.206 1.925-.156 3.823-.192 5.728.023 2.043.23 2.572.914 2.304 2.932-.244 1.834-.205 3.656-.018 5.495.109 1.067-.008 2.156-.02 3.235-.003.313 0 .627 0 1.09.339-.211.606-.342.833-.524 2.102-1.685 4.473-2.625 7.137-3.168 4.656-.95 8.965-.173 13.122 1.913 1.42.712 2.8 1.506 4.31 2.323.042-.24.148-.565.144-.89-.02-1.396-.085-2.791-.106-4.187-.02-1.276-.005-2.552-.005-3.924-.495-.151-1.043-.261-1.534-.49-.29-.135-.67-.438-.702-.703-.122-1.013-.318-2.025-.051-3.067.244-.956.429-1.2 1.437-1.241.547-.022 1.093-.004 1.646-.004l-.162-3.542c-.24-.09-.57-.145-.81-.322-.232-.171-.523-.478-.51-.707.015-.222.36-.462.609-.616.187-.117.449-.11.744-.172l.178-1.598-1.173-.784c.124-.246.152-.381.234-.451.422-.358 1.213-1.401 1.385-1.857.407-1.09.866-1.346 2.147-1.2 1.04.12 1.345.468 1.468 1.665.019.194.056.386.089.605.573.292 1.523-.041 1.639.913.099.816-.646.892-1.22 1.188v1.019c.55.23 1.333.183 1.342.984.006.694-.666.803-1.222 1.01v3.73c.449 0 .835-.012 1.222.002 1.013.036 1.53.514 1.642 1.533.043.396.033.799.036 1.199.009 1.527-.383 2.088-1.803 2.583-.262.09-.527.165-.901.282v14.071c.18.169.568.509.93.872.99.983 2 1.926 2.819 3.089.583.829 1.507 1.413 2.254 2.132.627.604 1.21 1.172 2.175 1.295.806.102 1.303.923 1.27 1.667-.033.813-.644 1.487-1.498 1.634-.196.034-.4.029-.598.029-5.438-.01-10.881.117-16.312-.08-3.236-.117-6.47-.14-9.703-.2-2.598-.047-5.196-.11-7.793-.14-3.835-.044-7.671-.036-11.505-.105-3.4-.06-6.793-.224-10.191-.284-1.516-.026-3.037.052-4.551.153a63.287 63.287 0 0 1-8.742.002c-1.471-.106-2.96-.011-4.437.024-1.758.042-3.516.113-5.273.177-2.436.089-4.872.192-7.307.268a8.646 8.646 0 0 1-1.672-.085c-.731-.12-1.191-.622-1.273-1.252-.083-.647.197-1.26.893-1.542.654-.266 1.37-.468 2.07-.516 1.834-.127 3.676-.148 5.514-.222 3.314-.134 6.629-.275 9.943-.415.235-.01.47-.038.784-.063.299-3.318.603-6.608.889-9.9.135-1.561.468-1.917 2.054-2.054 1.39-.121 2.783-.228 4.175-.351.19-.017.375-.092.6-.15.016-.27.04-.502.04-.733.006-1.463.003-2.926.003-4.46-.2.108-.376.189-.536.29a7058.297 7058.297 0 0 0-7.373 4.688c-1.38.878-2.738 1.79-4.14 2.632-1.33.799-2.708 1.52-4.057 2.287-.415.236-.842.47-1.2.779-2.871 2.48-6.217 4.194-9.548 5.923-1.662.863-3.393 1.595-5.09 2.39-.173.083-.328.2-.624.383.435.297.778.534 1.124.767 1.677 1.128 2.9 3.025 2.163 5.483-.251.837-.37 1.732-.733 2.514-.966 2.076-2.73 3.324-4.804 4.096-4.26 1.583-8.653 1.945-13.091.97-1.98-.435-3.906-1.138-5.824-1.813-1.693-.595-3.08-1.725-4.27-3.025-1.786-1.95-2.387-6.038-.528-8.62.525-.728 1.228-1.25 2.065-1.588.51-.208 1.018-.427 1.662-.697l-8.506-8.733-1.145.34c.016 1.488.348 2.969.394 4.46.047 1.51-.098 3.024-.16 4.574.416.119.762.198 1.094.316.808.288 1.259.966 1.18 1.743-.077.778-.654 1.367-1.491 1.493-.235.035-.48.009-.718.016-1.997.058-3.993.139-5.991.167-.876.012-1.754-.107-2.632-.124-4.597-.087-9.195-.171-13.793-.235a222.614 222.614 0 0 0-6.837-.014c-3.717.063-7.435.15-11.151.282-4.357.153-8.712.206-13.068-.022-.317-.017-.646-.044-.943-.144-1.154-.386-1.42-1.49-.573-2.348.193-.196.43-.347.635-.508.097-1.584.14-3.141.298-4.687.355-3.496.78-6.985 1.15-10.48.443-4.171.779-8.354 1.305-12.514.475-3.763 1.118-7.506 1.739-11.25.307-1.85.739-3.68 1.099-5.521.177-.903.65-1.631 1.303-2.243 1.314-1.23 3.225-1.052 4.082.516.722 1.32 1.256 2.759 1.753 4.186 1.113 3.189 1.472 6.539 1.98 9.855.333 2.169.687 4.335 1.018 6.505.09.59.207 1.194.178 1.784-.106 2.098.348 4.133.607 6.19.099.792.187 1.594.167 2.389-.071 2.855.452 5.653.757 8.472.02.19.115.373.19.607l.938.053c.088-.141.192-.234.203-.338.062-.578.16-1.207.799-1.341.682-.143 1.409-.126 2.109-.082.172.01.363.383.468.622.14.319.207.67.3.99.532.057.54-.318.636-.603.343-1.033.605-1.238 1.602-1.24 1.076-.001 1.37.22 1.717 1.286.142.438.142.438.726.594v-2.971c-.654-.271-1.3-.48-1.887-.8a4.673 4.673 0 0 1-1.212-.953c-.58-.64-.572-1.161-.002-1.808 1.743-1.984 2.565-4.397 3.189-6.886.367-1.466.732-1.9 2.233-1.943 1.116-.032 2.236.085 3.353.07 2.956-.036 5.914-.062 8.866-.188 1.305-.056 2.599-.345 4-.543l-2.302-3.712c-.106-.17-.224-.332-.321-.507-1.561-2.83-3.222-5.61-4.65-8.506-1.444-2.931-2.792-5.927-3.936-8.987-1.466-3.92-2.693-7.928-4.007-11.904-.3-.908-.52-1.843-.811-2.755-.128-.401-.437-.762-.497-1.166-.274-1.854-.553-3.712-.71-5.578-.151-1.83-.25-3.673-.21-5.507.086-3.742-.044-7.5 1.05-11.165.843-2.827 1.476-5.717 2.227-8.572.182-.692.428-1.371.695-2.035 1.028-2.551 2.015-5.122 3.134-7.633 1.398-3.14 2.92-6.221 5.138-8.894.153-.185.32-.362.442-.567 1.666-2.823 4.007-5.068 6.363-7.28 1.248-1.17 2.662-2.17 4.034-3.202 1.719-1.294 3.408-2.633 5.288-3.698 1.354-.768 2.675-1.61 4.082-2.266 5.112-2.39 10.372-4.358 15.94-5.43 1.879-.36 3.716-.964 5.603-1.256 1.925-.297 3.848-.695 5.776-.872C92.02.94 94.947.999 97.862.929c.438-.011.888-.02 1.315.062 2.862.537 5.71 1.159 8.582 1.634 2.253.374 4.455.907 6.613 1.633 2.154.725 4.304 1.464 6.449 2.217.79.277 1.562.607 2.337.925.406.166.826.316 1.196.544 2.175 1.339 4.393 2.617 6.488 4.073 2.553 1.775 5.139 3.547 7.452 5.61 2.678 2.39 5.202 5 7.194 8.016 1.96 2.967 3.572 6.136 4.748 9.51.184.527.453 1.024.632 1.552.292.864.552 1.74.808 2.616.134.459.188.944.348 1.393.835 2.347 1.2 4.79 1.57 7.239.492 3.25.655 6.524.478 9.792-.19 3.504-.347 7.028-1.2 10.459-.663 2.672-1.248 5.372-2.083 7.99-1.151 3.614-2.496 7.162-4.515 10.416-1.305 2.103-2.48 4.286-3.787 6.387-2.328 3.739-4.881 7.306-8.164 10.293-.501.456-.92 1.003-1.413 1.468-.55.518-1.158.974-1.712 1.487-.84.777-1.654 1.58-2.48 2.372l.124.288z" mask="url(#d)"/>
        </g>
        <path fill="#EE404A" d="M78.526 132.738c-.254.086-.41.123-.552.19-.793.367-1.592.726-2.371 1.123-.424.216-.82.49-1.216.756-.358.24-.619.566-.363 1.001.258.44.671.324 1.059.173.037-.014.07-.038.105-.057.915-.476 1.836-.94 2.74-1.435.347-.19.686-.418.968-.69.143-.138.263-.47.192-.616-.102-.205-.39-.319-.562-.445m66.306-96.733c-.155-.498-.219-.903-.399-1.247-.939-1.799-1.916-3.578-2.862-5.373-1.106-2.1-2.72-3.82-4.22-5.622-.249-.299-.596-.523-.924-.745-.302-.205-.661-.18-.837.137-.108.195-.091.536.006.75.128.278.399.49.595.741 1.028 1.318 2.197 2.553 3.045 3.978 1.441 2.423 3.172 4.69 4.169 7.365.027.075.053.171.111.21.246.16.523.44.751.407.217-.03.386-.396.565-.6m-44.107 85.496c.021-.572-.379-.899-.819-.776-.299.084-.575.265-.845.43-.612.373-1.188.814-1.826 1.134-1.672.84-3.372 1.624-5.053 2.446-.427.21-.829.477-1.236.728-1.22.752-2.414 1.548-3.659 2.255-1.803 1.022-3.643 1.977-5.464 2.966-.644.35-.85.803-.582 1.228.238.377.642.428 1.278.093 1.62-.856 3.25-1.697 4.838-2.61 1.69-.973 3.304-2.08 5.011-3.02 1.637-.903 3.367-1.636 5.025-2.503.949-.496 1.852-1.086 2.745-1.68.277-.186.45-.525.587-.69m48.163-65.54c-.062-1.677-.08-3.357-.197-5.03-.136-1.947-.348-3.889-.999-5.753-.089-.256-.051-.555-.086-.833-.226-1.83-.589-3.625-1.404-5.299-.087-.179-.17-.363-.281-.526-.22-.319-.537-.588-.893-.329-.199.144-.322.53-.309.798.016.345.207.681.317 1.022.305.947.725 1.875.886 2.845.365 2.198.969 4.357 1.044 6.607.054 1.592.293 3.178.352 4.77.122 3.28-.201 6.53-.623 9.783-.428 3.3-1.263 6.498-2.123 9.691-.851 3.161-1.834 6.285-3.256 9.252-.261.545-.124.942.29 1.116.462.194.796-.049 1.006-.41.321-.55.628-1.118.857-1.71a91.266 91.266 0 0 0 3.375-10.602c1.272-5.053 2.089-10.16 2.044-15.392m-8.883 31.644c-.195-.262-.341-.638-.601-.749-.176-.075-.614.153-.757.365-.686 1.02-1.287 2.096-1.968 3.118-.773 1.162-1.496 2.381-2.421 3.412-2.426 2.702-4.852 5.418-7.462 7.936-2.526 2.435-5.164 4.79-7.968 6.891-3.703 2.774-7.599 5.292-11.447 7.867-1.59 1.064-3.272 1.992-4.911 2.984-.623.377-.816.74-.602 1.117.211.375.613.424 1.271.092.676-.34 1.357-.687 1.991-1.099 3.749-2.438 7.481-4.9 11.222-7.347 3.756-2.456 7.215-5.293 10.454-8.38 2.426-2.313 4.728-4.757 7.028-7.197 1.201-1.274 2.372-2.579 3.262-4.12.653-1.132 1.508-2.145 2.214-3.249.294-.459.436-1.017.695-1.64m-12.506-32.664c-.138-1.239-.221-2.637-.466-4.005-.267-1.49-.755-2.94-1.021-4.429-.422-2.366-1.345-4.54-2.63-6.514-1.736-2.67-3.285-5.464-5.429-7.879a44.96 44.96 0 0 0-5.923-5.575c-1.287-1.007-2.668-1.89-3.994-2.848a40.582 40.582 0 0 0-9.345-5.059c-.707-.269-1.461-.419-2.163-.699-3.078-1.224-6.248-1.913-9.577-1.74-.997.052-1.995.09-2.993.145-1.554.087-3.118.101-4.658.3-1.854.237-3.716.381-5.531.972-2.405.782-4.699 1.79-6.956 2.9-2.982 1.465-5.902 3.032-8.339 5.352-.984.936-2.037 1.803-2.977 2.78-1.382 1.44-2.776 2.882-4.004 4.45-1.075 1.37-2.212 2.721-2.981 4.312-.45.933-.813 1.924-1.377 2.781-.647.981-1.12 2.017-1.519 3.108-.369 1.011-.779 2.007-1.183 3.005-.722 1.78-1.366 3.587-1.587 5.506a372.83 372.83 0 0 0-.77 7.39 21.927 21.927 0 0 0 .539 7.25c.065.27.069.553.128.824.178.815.343 1.634.563 2.437.168.614.413 1.207.622 1.81 1.005 2.906 1.953 5.84 3.907 8.301.17.214.312.476.384.738.261.96.814 1.72 1.495 2.42.303.31.591.66.793 1.041 1.201 2.271 2.952 4.05 4.908 5.673 4.192 3.478 8.928 6.018 13.895 8.17.293.126.601.217.905.316 4.926 1.597 9.934 2.586 15.155 2.567 3.687-.014 7.334-.3 10.95-.912 1.432-.242 2.806-.876 4.18-1.403.74-.284 1.43-.706 2.13-1.089 1.155-.63 2.35-1.206 3.439-1.938 2.961-1.99 5.694-4.273 8.134-6.873 1.5-1.599 3.067-3.208 4.204-5.059 1.835-2.987 3.424-6.136 4.961-9.293 1.349-2.77 2.012-5.8 2.849-8.754.956-3.373 1.096-6.847 1.282-10.479m-53.473 83.134c-3.216-2.296-6.127-4.932-8.623-8.055-1.994-2.495-4.202-4.818-6.289-7.24-1.591-1.845-3.185-3.69-4.699-5.598-2.886-3.636-5.516-7.45-7.785-11.507-1.363-2.437-2.82-4.828-4.043-7.333-1.364-2.793-2.657-5.639-3.717-8.558a263.44 263.44 0 0 1-4.717-14.19 29.887 29.887 0 0 1-1.235-7.783c-.079-2.915-.142-5.827-.074-8.744.054-2.374.565-4.676 1.064-6.974a71.03 71.03 0 0 1 1.634-6.25c.584-1.86 1.356-3.663 2.062-5.483.375-.967.903-1.889 1.159-2.883.714-2.76 2.142-5.154 3.661-7.504 1.234-1.91 2.578-3.746 4.148-5.406.986-1.043 1.876-2.19 2.941-3.143 1.694-1.514 3.418-3.019 5.273-4.322 4.064-2.853 8.432-5.197 13.005-7.129 2.202-.93 4.479-1.686 6.725-2.51.899-.33 1.794-.68 2.714-.94 1.573-.443 3.172-.793 4.746-1.23 3.155-.88 6.383-.965 9.625-.978 1.115-.004 2.23-.14 3.344-.22 4.116-.295 8.11.463 12.103 1.332 2.143.467 4.316.794 6.392 1.54 2.102.754 4.189 1.557 6.311 2.248 3.083 1.004 5.684 2.884 8.398 4.55 1.081.662 2.006 1.574 3.016 2.355.505.39 1.032.748 1.559 1.105 2.094 1.422 4 3.053 5.663 4.968 1.179 1.358 2.405 2.676 3.575 4.043 1.39 1.627 2.239 3.582 3.188 5.472.429.855.854 1.715 1.237 2.592 1.168 2.667 2.327 5.34 3.09 8.162.827 3.055 1.278 6.166 1.476 9.32.062.993.24 1.988.212 2.978-.137 4.8-.576 9.562-1.846 14.217-.504 1.848-.888 3.731-1.444 5.562-1.067 3.52-2.349 6.952-4.329 10.092-1.3 2.06-2.468 4.2-3.741 6.276-2.241 3.65-4.668 7.15-7.893 10.041-2.375 2.13-4.652 4.366-6.991 6.535-3.115 2.886-6.489 5.457-9.984 7.85-2.302 1.576-4.771 2.906-7.164 4.348-1.671 1.007-3.286 2.124-5.023 3-2.201 1.11-3.861 2.97-6.024 4.115-1.833.971-3.608 2.054-5.458 2.991-2.527 1.28-5.094 2.48-7.655 3.69-1.983.938-3.99 1.826-5.972 2.767-1.184.562-2.341 1.183-3.615 1.831"/>
        <path fill="#F1706C" d="M8.723 109.45c-.208-.173-.32-.338-.42-.33-.1.01-.21.176-.267.296-.016.034.135.208.214.212.118.005.24-.084.473-.178m1.7-12.928c-.154-.218-.214-.396-.313-.422-.117-.03-.269.073-.405.118.062.127.092.305.194.366.088.054.256-.023.523-.062m-2.407 19.766c-.2-.128-.319-.264-.428-.256-.107.008-.204.161-.306.25.106.097.202.253.32.271.096.015.22-.133.414-.265m1.505-21.34c.228.233.354.443.535.514.093.037.284-.176.43-.276-.13-.174-.23-.397-.402-.499-.084-.049-.302.133-.563.261m3.27 26.871c.352.362.677.495 1.006.073.058-.075.014-.329-.069-.4-.366-.313-.636-.114-.937.327m-6.677 3.326c.717.562.797.562 1.461-.018-.505-.365-.965-.432-1.46.018m3.09-27.224c-.06.53.232.7.55.681.266-.015.696-.164.746-.34.112-.394-.264-.52-.596-.509-.246.01-.488.114-.7.168m3.822 14.848c-.897-.547-1.063-.534-1.694.121.568.365 1.067.456 1.694-.12m.753 18.357c.267.505.663.482 1.043.34.14-.053.297-.288.291-.434-.006-.137-.199-.355-.339-.382-.389-.074-.793-.066-.995.476m.115-11.022c-1.095-.54-1.298-.53-1.936.044.68.494 1.056.496 1.936-.044m-4.6-9.13c-.618-.425-1.202-.448-1.832-.027.683.806.986.808 1.831.026m-2.399 6.8c.711.795 1.24.843 2.26.284-.677-.598-1.378-.524-2.26-.284m5.338-12.11c-1.049-.43-1.054-.43-1.756.09.544.824 1.186.816 1.756-.09m-3.107-5.52c.796.098 1.45.471 2.15-.114-.902-.732-1.253-.727-2.15.113m-1.358 5.406c.53.704 1.082.77 2.034.241-.44-.776-1.212-.867-2.034-.24m5.154 5.572c-1.089-.567-2.053-.519-2.578.071.74.568 1.684.564 2.578-.07m-.638 18.038c.58.968 1.397.615 2.092.612.334 0 .582-.253.376-.789-.745-.105-1.532-.236-2.468.177m-1.965-16.6c-.199-.526-.635-.486-1.004-.48a8.287 8.287 0 0 0-1.627.168c-.278.061-.274.588.01.65.487.11 1.002.122 1.506.131.428.007.863-.035 1.115-.469m-1.586-10.617c.09.53.504.576.898.526.68-.085 1.486.332 2.051-.417-.788-.734-2.164-.766-2.949-.109m1.683 16.094c.542 1.136 1.433.737 2.101.908.382.098.787-.037.907-.609-.92-.62-1.86-.458-3.008-.299m4.178 9.41c-.062-.148-.075-.263-.125-.283-.937-.38-1.91-.39-2.883-.209-.122.023-.189.342-.383.723 1.074.048 1.966.11 2.858.11.182 0 .364-.227.533-.342m-1.85-17.975c-.39-.155-.73-.412-1.056-.395-.739.038-1.557-.377-2.257.25.303.893 1.082.614 1.634.73.542.113 1.192.21 1.68-.585m-.599-5.424c-.175-.123-.319-.31-.469-.315a74.926 74.926 0 0 0-3.319-.048c-.088.001-.174.222-.292.383.796.832 1.793.22 2.638.464.445.13 1.032.066 1.442-.484m-5.264 15.726c.201.144.407.417.602.41 1.073-.044 2.181.355 3.456-.175-.378-.28-.568-.539-.787-.565-1.05-.126-2.112-.31-3.27.33m6.483-3.257c-1.149-.675-2.385-.485-3.568-.55-.33-.019-.739-.068-.866.541.94.667 2.09.388 3.131.566.443.076.953.053 1.303-.557m-4.88 8.69c.326.512.754.356 1.134.376.911.047 1.822.1 2.734.141.437.02.878.052 1.312.017.178-.014.344-.189.568-.323-1.19-.66-4.702-.774-5.748-.212m-1.882-3.88c.751.491 3.014.856 4.294.69.22-.029.42-.226.68-.375-.764-.549-3.163-.874-4.564-.66-.144.022-.262.215-.41.344m3.641 5.966c-.237-.58-.762-.516-1.212-.472-1.044.104-2.16-.295-3.23.32.92.904 3.547.94 4.442.152m2.347-19.706c-.48-.19-.785-.399-1.1-.417-.953-.055-1.91-.042-2.867-.042-.34 0-.72.114-.638.51.047.223.423.54.65.537 1.142-.008 2.285-.102 3.427-.182.095-.006.182-.134.528-.406m.442 7.5c-.44-1.124-1.353-.838-1.99-.945-2.468-.41-3.313-.298-3.937.3.104.431.431.495.814.517 1.226.072 2.45.18 3.676.236.442.02.89-.064 1.437-.109m-7.472 14.343c1.945.627 5.028.496 5.92-.35-1.805-.635-3.579-.21-5.31-.293-.313-.015-.64.105-.61.643m8.434-5.765l-.02-.386c-.294-.054-.586-.152-.879-.155a349.305 349.305 0 0 0-5.969-.003c-.228.002-.456.167-.793.3.457.61 1.004.595 1.488.595 2.066.001 4.16.28 6.173-.35m-1.319 7.203c-.137-.09-.232-.208-.328-.208a479.518 479.518 0 0 0-6.459.005c-.346.003-.602.202-.496.78.317.061.682.17 1.053.198.635.048 1.275.077 1.91.058 1.235-.035 2.47-.107 3.703-.17.35-.018.624-.143.617-.663m-8.164 1.895c.336.686.877.667 1.378.67 2.307.012 4.615.023 6.923-.005.671-.008 1.347-.113 2.01-.237.255-.048.48-.27.718-.413l-.073-.285c-.74-.027-1.485-.116-2.222-.07-2.14.134-4.274.436-6.426.157a9.67 9.67 0 0 0-1.55-.064c-.239.008-.473.15-.758.247m-1.819 2.013c.264-1.44.545-2.882.787-4.33.216-1.299.41-2.602.574-3.909.17-1.347.291-2.7.436-4.05.43-4.012.827-8.028 1.3-12.034.475-4.046.905-8.1 1.73-12.097.476-2.307.904-4.624 1.366-6.934.126-.63.301-1.252 1.162-1.542.233.383.535.748.697 1.167 1.011 2.614 1.783 5.296 2.208 8.074.31 2.014.715 4.014.983 6.033.347 2.607.596 5.228.897 7.842.205 1.784.427 3.566.641 5.35.043.356.127.714.116 1.07-.112 3.7.6 7.317 1.066 10.961.172 1.34.288 2.685.426 3.992-1.325.475-12.69.781-14.389.407"/>
        <path fill="#F59795" d="M126.635 114.8v-1.45c-.952.18-.986.257-.676 1.4l.676.05zm3.271 6.996l-.062 1.243h.935v-1.243h-.873zm2.442 1.255h.764v-1.342h-.764v1.342zm-3.6-8.139l.244-.226a590.8 590.8 0 0 1-.087-1.614c-.669.405-.912.931-.705 1.477.064.166.36.244.548.363zm8.486 10.83l.241-1.305h-1.094v1.153l.853.152zm-2.117-2.634l.156-1.35h-.98v1.35h.824zm-6.754 5.635v-1.449c-.76.025-.808.02-.83.254-.038.405-.01.815-.01 1.276l.84-.08zm.197-7.16l-.787.13v1.343h.787v-1.473zm.072-2.656c-.81.001-.92.145-.885.962.026.588.28.77.885.528v-1.49zm1.868 9.747v-1.604l-.83.071v1.533h.83zm4.778-13.719c.075-.724.06-1.313-.437-1.879-.632.612-.415 1.233-.299 1.88h.736zm-.18 9.3c-1.016.07-1.016.07-.77 1.512l.77-.099v-1.414zm3.686-2.473v1.517l.844-.143v-1.374h-.844zm-5.638-1.182v-1.64c-.966.154-.967.157-.732 1.596l.732.044zm-7.53-1.869v1.723l.82-.084v-1.534l-.82-.105zm7.682-3.798c.121-1.218.121-1.218-.36-1.767-.482.604-.599 1.348-.272 1.767h.632zm1.162 5.673l.8-.063v-1.623c-.296.017-.514.03-.8.045v1.641zm3.02-4.59c-.388.071-.605.112-.828.154v1.614l.936-.049-.109-1.72zm-.05-2.854l-.82.044v1.796l.82-.086v-1.754zm-6.117 1.82l-.114-2.019c-.388.237-.742.336-.766.488-.075.478-.027.976-.027 1.487l.907.043zm-7.339 16.5v-1.76l-1.036.233.262 1.526h.774zm11.285-13.703v-1.665h-.77v1.717l.77-.052zm-6.435-1.804c-.96.002-1.009.127-.758 1.758l.758-.08v-1.678zm-.502 13.742l-.813.097v1.724l.813-.104v-1.717zm4.211-13.668v1.788l.803-.035v-1.718c-.272-.012-.488-.02-.803-.035zm-.419 9.841c.491.154.875.161.976-.276.101-.434.063-.9.087-1.414l-.83.061-.233 1.63zm3 2.67v-1.823l-.868.121v1.754c.287-.018.508-.03.867-.053zm-9.819-5.243c.511-.254.924-.324 1.03-.543.153-.315.083-.737.115-1.213l-1.05.066-.095 1.69zm7.627 3.575l-.808.151v1.784l.808-.088v-1.847zm-6.662.352l-.905.066v1.471c1.082-.032 1.082-.032.905-1.537zm-3.149-5.803c-.056.506-.11 1.026-.17 1.58.262.052.41.1.56.106.147.008.297-.025.43-.038.406-1.508.334-1.669-.82-1.648zm1.144-1.173l-.092-1.586-1.072.112.08 1.474h1.084zm13.187 3.053v-1.638l-.988.112v1.42l.988.106zm1.36-4.395c-.08.411-.169.71-.19 1.014-.058.755.027.81 1.02.702v-1.644l-.83-.072zm-8.202 12.567l-.11-1.804-1.086.087c.092.625.172 1.155.256 1.717h.94zm-2.873-7.25c-.027.5-.087.962-.067 1.422.023.547.098.564.88.34v-1.763h-.813zm11.89-8.092c-.272-.03-.46-.08-.643-.062-.138.014-.266.114-.456.203l.202 1.548h.897v-1.689zm-16.635 12.718l1.081-.119-.074-1.672-1.007.124v1.667zm3.625-11.12l.085-1.847h-.969l-.174 1.701 1.058.146zm3.45 1.168c-.068.558-.13 1.083-.2 1.675h1.08v-1.675h-.88zm-4.903 12.504h1.011v-1.688l-1.01.151v1.537zm-.702-15.634h-1.095c-.069.613-.133 1.178-.2 1.788h1.096l.2-1.788zm12.174 3.083v1.651c1.123.155 1.232-.043.881-1.576l-.88-.075zm-6.436-2.789v1.706c.366-.029.652-.05.975-.077v-1.629h-.975zm8.402-1.04h.924v-1.745h-.924v1.745zm-14.617 10.94v-1.728h-.996v1.851l.996-.124zm6.807-1.812l-1.08.12v1.911c.381-.092.667-.16.994-.24l.086-1.79zm-4.42 1.956c0-.497.04-.924-.01-1.34-.07-.604-.126-.613-.988-.424v1.764h.998zm14.551-14.897c0 .5-.004.853.001 1.205.026 1.836.068 3.673.076 5.51.005 1.197-.038 2.395-.06 3.594-.008.4-.066.806-.014 1.198.113.83-.195 1.391-.925 1.714l-1.163-.314c-.344 1.321-.393 2.838-2.408 2.402.117 1.18-.558 1.761-1.3 2.348-.74.584-1.4 1.27-2.11 1.923l-.137-1.109h-.784c-.049.821-.27 1.598.387 2.432-.459.063-.75.135-1.044.137-2.358.02-4.716.01-7.073.045-.582.008-1.162.146-1.744.224-.097.512-.168.898-.262 1.391-.318.024-.647.05-.968.073-.074-.209-.15-.32-.146-.428.106-3.232.225-6.464.333-9.697.02-.638.042-1.28-.005-1.917-.142-1.922-.005-3.828.257-5.73.017-.118.023-.239.022-.358-.006-1.278-.006-1.278 1.144-2.096.485.224.384 1.41 1.42.844.297-.57.135-1.148-.269-1.653.072-.12.105-.194.154-.255.902-1.114 2.061-1.39 3.48-1.39 2.712-.003 5.422-.259 8.134-.344 1.63-.05 3.264-.012 5.004.251z"/>
        <path fill="#F1706C" d="M167.223 128.673c-.85-.39-1.354-.094-1.864.11-3.002 1.198-5.973 2.483-9.013 3.578-2.208.796-4.499 1.366-6.769 1.983-.467.127-1 .02-1.517-.19 1.863-.72 3.735-1.418 5.586-2.169 1.924-.78 3.835-1.59 5.735-2.427 1.824-.803 3.825-1.234 5.651-2.418-.532-.48-.926-.417-1.29-.294-1.775.6-3.545 1.212-5.312 1.836-2.483.876-4.96 1.767-7.44 2.65-1.957.695-3.908 1.406-5.872 2.072-1.587.538-3.19.99-4.908.873-1.027-.069-2.063-.013-3.129-.223.314-.112.622-.235.94-.334 3.123-.97 6.261-1.897 9.368-2.917a480.131 480.131 0 0 0 10.408-3.58c1.126-.399 2.203-.934 3.3-1.415.18-.079.406-.165.491-.316.104-.184.15-.46.09-.656-.04-.129-.319-.272-.477-.258-.35.031-.707.12-1.037.251-.962.385-1.89.872-2.874 1.192-2.652.865-5.327 1.662-7.993 2.49-1.752.544-3.498 1.11-5.257 1.64-2.557.77-5.12 1.526-7.689 2.265-.393.113-.822.098-1.258.044.973-1.167 1.953-2.093 3.516-2.51 4.311-1.152 8.557-2.544 12.834-3.828 1.49-.447 2.988-.862 4.486-1.279.51-.142.988-.305 1.252-.88-.516-.523-1.135-.374-1.673-.229-2.229.601-4.442 1.262-6.663 1.895-1.955.558-3.913 1.102-5.866 1.665-1.147.331-2.285.687-3.703 1.114.371-.412.544-.65.76-.838a54.006 54.006 0 0 1 2.118-1.768c.273-.214.606-.4.94-.479 1.512-.357 3.043-.632 4.548-1.012 1.35-.34 2.675-.779 4.011-1.174.152-.045.353-.05.444-.152.14-.158.313-.41.272-.57-.045-.166-.313-.324-.513-.379-.173-.049-.389.042-.583.085-1.596.357-3.192.718-4.787 1.077l-1.104.251c1.38-2.274 8.01-3.874 11.743-2.987-.673.656-1.843.427-2.276 1.331.277.534.701.42 1.073.314.73-.208 1.472-.403 2.156-.716 1.022-.468 1.99-.493 2.98.04.267.143.555.25.892.4-.76.727-1.89.568-2.71 1.44.415.035.68.125.897.062.535-.156 1.076-.332 1.566-.59 1.175-.62 2.132-.199 3.094.494-.515.485-1.409.325-1.679 1.228.54.262 1.087.204 1.577-.024 1.124-.524 1.991-.299 2.643.78-.27.33-.557.677-.886 1.08.604.42 1.087.204 1.573.075.808-.215.81-.212 1.41.638-.375.518-1.302.484-1.427 1.43.27.053.527.175.755.132.305-.058.588-.24.88-.37 1.121-.508 1.207-.485 2.154.631l-2.07 1.064c.165.655.466.721.904.462l1.818-1.072 1.198 1.085c-.844.602-1.846.75-2.616 1.637 1.377.168 2.05-.783 3.004-1.18 1.38.933 1.98 2.55 3.208 3.69-1.447.201-2.833.33-4.308.185.458-.685 1.44-.632 1.578-1.535-.442-.317-.847-.155-1.244.006-.926.372-1.856.737-2.773 1.132-.894.386-1.807.47-2.896.298.655-.603 1.616-.71 1.793-1.705-.645-.329-1.234-.075-1.813.138-1.086.4-2.154.85-3.249 1.225-.419.143-.887.14-1.334.202a13.253 13.253 0 0 0-.08-.264c.91-.478 1.827-.94 2.726-1.437.766-.424 1.531-.856 2.258-1.343.398-.268.361-.322.063-1.123-3.917 1.71-7.73 3.757-12.15 4.012.193-.11.378-.243.583-.326 2.144-.873 4.307-1.7 6.432-2.618 1.17-.505 2.29-1.132 3.405-1.756.346-.194.596-.559.99-.94"/>
        <path fill="#F59795" d="M38.158 122.207c.735-.659.986-1.612 1.114-2.499.126-.877.328-1.849-.223-2.718-.481 1.48-.855 2.96-1.211 4.445-.043.178-.003.381.027.567.008.053.12.088.293.205m1.713-.015c1.024-.71.84-1.71 1.002-2.566.16-.844.165-1.695-.263-2.549-.211.127-.376.173-.386.241a218.81 218.81 0 0 0-.588 4.344c-.015.123.113.265.235.53m7.359-.465l-1.533-4.793c-.605.236-.551.618-.493.963.112.663.227 1.331.41 1.977.16.567.384 1.123.643 1.652.164.334.459.564.973.201m-2.385.33c.172-.28.298-.393.28-.475-.306-1.53-.63-3.059-.958-4.62-.518-.129-.663.196-.693.648a7.408 7.408 0 0 0 .749 3.808c.106.218.352.368.622.64m6.413-.397c.05-.155.114-.247.09-.3-.597-1.373-1.191-2.749-1.823-4.107-.091-.194-.377-.297-.62-.477-.217 1.046.337 2.98 1.162 4.215.262.394.547.8 1.19.67m-4.113-4.769c-.095.04-.19.078-.286.117-.278 1.683.47 3.077 1.329 4.432.187.295.532.46.809.201.138-.129.15-.523.069-.738a63.324 63.324 0 0 0-1.331-3.186c-.136-.303-.39-.552-.59-.826m-10.105-.278a4208.84 4208.84 0 0 0-1.487 5.17c-.01.035-.011.088.008.116.084.124.154.3.272.345.12.048.329.013.43-.07.146-.119.279-.3.33-.48.332-1.147.654-2.297.947-3.454.132-.52.025-1.016-.5-1.627m-5.81 5.45c.62.176.903-.118 1.086-.469.647-1.24 1.16-2.533 1.282-3.943.02-.24-.106-.493-.156-.709-.6-.073-.677.278-.794.631-.424 1.28-.872 2.552-1.301 3.83-.061.181-.07.378-.117.66m3.912-5.173c-.112.13-.26.227-.3.358-.451 1.445-.886 2.896-1.323 4.345-.035.114-.098.24-.076.344.03.142.099.323.209.386.113.065.33.061.44-.009.159-.103.322-.27.38-.446.422-1.244.849-2.487 1.203-3.75.126-.448.06-.956-.533-1.228m-6.143 5.872c1.164-.477 1.453-1.472 1.81-2.34.5-1.214 1.143-2.444.616-3.966-.241.196-.426.27-.465.39-.58 1.82-1.148 3.644-2.072 5.332-.042.077.037.22.11.584m13.626-6.262a52.19 52.19 0 0 0-.395-.019c-.126.307-.35.612-.361.923a88.106 88.106 0 0 0-.04 4.422c.005.21.237.54.429.597.4.12.517-.25.603-.564.03-.115.045-.237.046-.355.008-1.395.029-2.79.004-4.185-.005-.275-.186-.546-.286-.819m9.945 5.533c1.079-.294 1.523.256 1.844 1.001-.65.55-1.376.427-2.14.412a88.315 88.315 0 0 0-5.867.105c-2.71.128-5.415.381-8.126.478-1.873.068-3.751-.045-5.627-.058-.993-.008-1.986.036-2.98.04-.972.002-1.89-.194-2.784-.847 1.75-2.352 2.329-5.136 3.118-7.889.485 0 .963-.046 1.428.008 3.865.448 7.735.24 11.603.121 1.472-.045 2.943-.11 4.412-.199.702-.042 1.213.173 1.62.77.586.857 1.266 1.648 1.85 2.505.309.452.51.978.74 1.48.296.646.572 1.302.909 2.073"/>
        <path fill="#FEFEFE" d="M66.015 138.126c-1.029-.151-1.63.265-1.704 1.113-.047.545.032 1.11.125 1.654.062.36.288.709.734.592.436-.114.531-.543.373-.87-.435-.894-.336-1.675.472-2.49m17.894 4.916c1.053.146 2.133-.857 2.236-1.88.111-1.11-.364-1.793-1.415-1.912.05.237.051.467.145.648.588 1.137.58 1.229-.242 2.189-.24.28-.448.589-.724.955m-4.249-.398c-.448 0-.903-.051-1.343.008-1.902.257-3.798.502-5.702-.004-.285-.075-.656-.107-.743.347 1.467 1.147 6.453 1.084 7.788-.351m3.23.976c-.188 0-.355-.041-.493.006-2.054.7-4.158 1.123-6.332 1.197-.145.005-.283.207-.445.332.123.153.181.26.27.327a.7.7 0 0 0 .326.135c2.197.225 4.3-.14 6.314-1.031.352-.156.632-.376.36-.966m-8.439 1.429c-.495-.138-.859-.256-1.23-.341a22.387 22.387 0 0 1-5.377-1.98c-.38-.197-.806-.556-1.398-.026.35.33.611.685.96.893 1.696 1.012 3.545 1.644 5.478 2.018.493.095 1.04.176 1.567-.564m-7.442-8.452l-.538.908c.496.535.936-.057 1.534.09l.907.759c-.45.257-.853.427-1.185.688-.669.528-.75 1.302-.127 1.864.725.654 1.6 1.095 2.798 1.502-.48-.71-1.002-.901-1.452-1.174-.495-.3-.814-.723-1.108-1.273l1.765-1.087c.923.765 1.966 1.56 2.927 2.446 1.015.935 2 1.058 3.146.047.745-.656 1.787-1.131 2.767-1.322.985-.191 2.06.064 2.824.997l-.362.832c.103.093.162.19.215.187.958-.06 1.362-.743.843-1.497-.216-.313-.567-.561-.905-.752-.364-.206-.785-.311-1.217-.473.45-.561 1.007-.672 1.63-.55.547.107 1.085.277 1.636.35.181.023.391-.171.588-.266-.108-.186-.175-.427-.334-.545-.21-.157-.493-.22-.738-.551.35-.036.728-.178 1.04-.088.723.209 1.428.497 2.114.812 1.615.74 2.092 2.962 1.171 4.435-.74 1.184-1.696 2.1-3.027 2.604-4.695 1.778-9.394 2.056-14.11.084-.478-.2-.964-.391-1.46-.536-1.408-.412-2.576-1.26-3.719-2.113-1.389-1.04-1.898-2.946-1.244-4.526.47-1.135 1.504-1.735 2.562-2.21.238-.105.667.216 1.06.358"/>
        <path fill="#F1706C" d="M52.501 132.834c-.166.284-.272.393-.282.51-.005.065.15.143.233.215.087-.104.212-.198.25-.318.022-.075-.088-.19-.2-.407m-16.68.437c-.27-.11-.415-.224-.526-.198-.125.032-.22.187-.328.29.103.098.226.291.307.276.154-.03.285-.18.547-.368m-5-1.494c.45.28.771.404 1.135-.03-.405-.323-.72-.346-1.135.03m18.77-2.077c-.356-.263-.516-.484-.682-.488-.465-.012-.998-.238-1.437.287.592.536 1.201.465 2.118.201m2.727-.436c-.683-.045-1.309-.365-1.705.415 1.157.557 1.376.516 1.705-.415m-3.392 4.253c1.816.426 2.332.328 2.6-.455-.854-.093-1.683-.234-2.6.455m-14.469-.283c-.987-.335-2.612-.324-3.46-.009.466.463 1.025.65 2.106.584.46-.028 1.056.168 1.354-.575m-1.703-1.439c.956.704 1.918.427 2.828.416.203-.003.403-.266.631-.427-.767-.625-2.433-.623-3.459.011m15.82-.088c1.271.482 2.33.214 3.358.22.206.001.414-.239.663-.396-.88-.638-2.492-.59-4.02.176m-11.022-1.993c.01-.099.02-.198.028-.297-.167-.077-.334-.219-.502-.22-1.879-.01-3.758-.009-5.637.02-.173.002-.344.21-.606.38.708.64 1.443.488 2.133.462 1.236-.045 2.472-.125 3.707-.204.294-.019.585-.093.877-.14m8.152-2.418c.276.667.65.627 1 .644 1.032.052 2.064.142 3.097.15.713.004 1.43-.077 2.136-.184.15-.023.323-.314.355-.504.018-.103-.216-.304-.375-.368-.173-.07-.39-.046-.589-.043-1.51.025-3.02.044-4.53.091-.335.01-.664.126-1.094.214m-14.94.202c.803.488 3.123.702 6.45.601.625-.019 1.328.071 2.133-.602-.252-.095-.398-.195-.546-.199a745.09 745.09 0 0 0-7.62-.157c-.11-.002-.222.183-.418.357m6.116 6.912c-2.368.035-4.59.148-6.886-.199v-8.305c.947 0 1.818-.044 2.683.008 2.392.141 4.78.42 7.18.144 4.376-.5 8.777-.37 13.17-.503.114-.004.231.027.496.062.05 2.911.173 5.83-.067 8.853l-5.33.297c-.057-.382-.12-.607-.12-.833-.014-2.049-.936-3.705-2.323-5.104-1.583-1.597-4.863-1.407-6.543.32-1.379 1.415-2.325 3.04-2.26 5.26M117.387 126.943c-.519-.585-.519-.585-1.233 0h1.233zm-1.522 4.24c.712.66.712.66 1.267-.056l-1.267.056zm2.163 1.753c-.733-.337-1.465-.648-2.38.078.93.177 1.644.611 2.38-.078zm-2.997-8.803l4.467-.589v.967c-.63.1-1.212.191-1.793.28-.525.08-1.116-.026-1.589.611 1.103.366 2.19-.058 3.151.216.313.76-.578.567-.672 1.093.13.348 1.103.41.56 1.19-.994.294-2.15-.172-3.148.33l-.007.282c.283.066.563.167.85.193.635.056 1.272.062 1.906.112.318.026.316.05.51.654-.999.517-2.28-.302-3.425.762.833.055 1.445.061 2.047.145.513.071 1.178-.227 1.61.565-.358.067-.583.091-.797.154-.169.05-.327.147-.48.424l1.04.23c.33.642-.364.767-.6 1.15.202.364.902.555.37 1.244h-5.1c.365-3.335.726-6.608 1.1-10.013z"/>
        <path fill="#F59795" d="M25.548 128.28c.393-.138.572-.005.65.337.323 1.409.326 1.406 1.695 1.494.114.007.224.055.353.089.186.537-.131.62-.533.63-1.357.033-2.714.054-4.07.104-.596.022-1.196.065-1.782.17-.221.04-.559.27-.577.44-.043.416.332.487.667.477 1.553-.05 3.106-.113 4.659-.161.547-.016 1.095-.002 1.739.21-.18.137-.344.357-.543.396-.665.127-1.349.157-2.011.295-.211.044-.375.309-.56.474.199.152.397.43.597.433.786.006 1.573-.076 2.414-.13.135.393.162.707-.348.799a4.278 4.278 0 0 1-.715.06c-2.395.037-4.79.067-7.185.1-.451.007-.937.062-.696-.745 1.215-.037 2.441-.07 3.667-.113.317-.012.657 0 .942-.111.214-.085.488-.34.505-.537.037-.438-.363-.46-.684-.448-1.075.039-2.152.083-3.226.154-.842.056-.841.075-1.547-.315l1.284-.58c-.127-.773-.804-.585-1.273-.813l-.041-.76c1.986-.383 1.986-.383 2.229-1.991l.949-.106c.204.636.224 1.376.597 1.673.389.31 1.12.267 1.698.248 1.169-.04.815-1.177 1.146-1.772M172.042 125.694c-.89-.326-1.378-1.04-1.99-1.582-.14-.123-.16-.438-.15-.66.146-3.14.305-6.28.466-9.419.006-.11.075-.217.16-.447l1.514.182v11.926z"/>
        <path fill="#F1706C" d="M175.176 109.541v1.594c-2.412 1.182-4.899.557-7.495.482l.093-1.844 7.402-.232"/>
        <path fill="#F59795" d="M41.52 130.024c.033.149.09.297.092.447.007 1.27.004 2.54.004 3.928a13.015 13.015 0 0 1-3.078-.014c-.367-1.849 1.117-4.004 2.983-4.361M43.456 129.852c1.651.749 2.713 2.765 2.547 4.723-.379-.02-.763-.033-1.146-.06-.35-.026-.698-.067-1.17-.113-.077-1.503-.15-2.96-.23-4.55M131.513 133.125c-.125.81-.51.926-.996.918-2.198-.037-4.396-.07-6.595-.103-.36-.005-.65-.069-.527-.662 2.653-.23 5.34.096 8.118-.153M171.994 108.008l-1.403-.122.173-3.522 1.23-.072v3.716z"/>
        <path fill="#F1706C" d="M170.851 100.622c1.173.302 1.186.323 1.134 1.86l-1.35.07.216-1.93"/>
        <path fill="#F59795" d="M171.742 99.06c-.45-.005-.782-.112-.634-.591.042-.136.399-.317.509-.264.435.209.222.546.125.855"/>
        <path fill="#362B24" d="M86.606 98.252c1.527-.079 2.928-.102 4.319-.236 1.946-.187 3.89-.407 5.82-.716.726-.116 1.425-.477 2.1-.801.789-.38 1.538-.843 2.305-1.267 1.188-.655 2.429-1.229 3.553-1.978a44.593 44.593 0 0 0 7.507-6.316c1.403-1.47 2.88-2.944 3.937-4.656 2.26-3.663 4.406-7.405 5.82-11.517 1.54-4.477 2.749-9.018 2.884-13.773a33.104 33.104 0 0 0-.261-5.248c-.216-1.613-.751-3.18-1.073-4.782-.295-1.464-.748-2.865-1.497-4.148-1.751-2.995-3.442-6.022-5.736-8.67-1.181-1.363-2.371-2.691-3.741-3.869-1.91-1.643-3.935-3.122-6.01-4.55-2.708-1.865-5.545-3.469-8.612-4.652-.856-.329-1.761-.532-2.603-.89-1.712-.729-3.503-1.163-5.337-1.252-2.148-.104-4.307-.048-6.46.008-1.513.04-3.03.146-4.533.316-1.462.165-2.922.306-4.354.756a40.704 40.704 0 0 0-7.152 3.039c-1.928 1.042-3.914 2.045-5.646 3.366-3.083 2.35-5.922 5.017-8.261 8.13-1.407 1.871-2.874 3.737-3.705 5.982-.137.37-.397.692-.574 1.049-.46.925-.922 1.848-1.344 2.789-.212.471-.288 1.004-.511 1.468-1.188 2.466-2.034 5.021-2.264 7.77-.2 2.387-.587 4.765-.658 7.154-.046 1.575.314 3.164.506 4.745.068.554.162 1.107.275 1.653.119.582.255 1.162.422 1.732.168.573.398 1.128.575 1.699.793 2.561 1.743 5.06 3.099 7.379.66 1.131 1.443 2.191 2.187 3.272.382.556.853 1.057 1.194 1.636.817 1.387 1.715 2.701 2.98 3.722 1.213.978 2.42 1.964 3.66 2.907 3.917 2.977 8.283 5.124 12.935 6.635 2.457.798 5.015 1.37 7.57 1.752 2.239.335 4.538.261 6.684.362m40.893-43.307c-.185 3.631-.325 7.105-1.281 10.478-.837 2.955-1.5 5.983-2.85 8.754-1.536 3.157-3.125 6.306-4.96 9.294-1.137 1.85-2.705 3.459-4.205 5.058-2.44 2.601-5.174 4.884-8.134 6.873-1.088.732-2.283 1.307-3.438 1.938-.7.383-1.391.805-2.131 1.089-1.373.527-2.747 1.161-4.18 1.403-3.615.612-7.262.898-10.95.912-5.221.019-10.23-.97-15.155-2.567-.303-.099-.612-.19-.904-.317-4.967-2.151-9.703-4.691-13.895-8.169-1.956-1.623-3.707-3.401-4.91-5.673-.2-.381-.488-.731-.791-1.042-.681-.699-1.234-1.46-1.496-2.418a2.112 2.112 0 0 0-.383-.739c-1.955-2.462-2.903-5.395-3.908-8.301-.208-.603-.453-1.196-.621-1.809-.22-.804-.385-1.623-.563-2.437-.06-.272-.064-.556-.13-.826a21.949 21.949 0 0 1-.537-7.249c.234-2.466.487-4.929.77-7.39.22-1.919.865-3.725 1.587-5.506.404-.998.814-1.994 1.183-3.005.398-1.091.872-2.126 1.518-3.108.565-.857.927-1.848 1.378-2.78.769-1.592 1.906-2.942 2.98-4.313 1.229-1.568 2.623-3.01 4.005-4.45.939-.977 1.993-1.844 2.976-2.78 2.438-2.32 5.358-3.887 8.339-5.352 2.258-1.109 4.552-2.118 6.956-2.9 1.816-.59 3.678-.734 5.532-.973 1.54-.198 3.104-.212 4.658-.299.997-.056 1.995-.093 2.993-.145 3.329-.172 6.499.516 9.576 1.74.703.28 1.455.431 2.163.7a40.55 40.55 0 0 1 9.346 5.059c1.324.957 2.707 1.841 3.992 2.847a44.91 44.91 0 0 1 5.924 5.575c2.145 2.415 3.693 5.209 5.43 7.879 1.284 1.975 2.208 4.148 2.63 6.514.265 1.489.754 2.939 1.02 4.429.245 1.369.327 2.766.466 4.006"/>
        <path fill="#FEFEFE" d="M140.004 87.608c-.257.623-.4 1.181-.693 1.64-.706 1.105-1.561 2.117-2.214 3.248-.89 1.543-2.062 2.848-3.262 4.122-2.3 2.44-4.602 4.883-7.028 7.196-3.24 3.088-6.7 5.925-10.453 8.38-3.743 2.447-7.476 4.91-11.224 7.347-.634.413-1.314.758-1.991 1.1-.657.331-1.06.282-1.271-.093-.213-.377-.02-.74.603-1.117 1.639-.992 3.32-1.92 4.91-2.983 3.849-2.575 7.745-5.093 11.447-7.867 2.805-2.102 5.443-4.457 7.967-6.892 2.612-2.517 5.037-5.233 7.463-7.935.926-1.032 1.649-2.25 2.422-3.413.68-1.022 1.28-2.098 1.968-3.117.142-.213.58-.44.757-.365.259.11.406.487.599.749M148.888 55.963c.045 5.231-.772 10.339-2.044 15.392a91.08 91.08 0 0 1-3.376 10.602c-.228.592-.535 1.16-.856 1.71-.21.361-.544.604-1.006.41-.414-.174-.55-.571-.29-1.116 1.422-2.967 2.405-6.091 3.256-9.252.86-3.193 1.695-6.391 2.123-9.691.422-3.253.744-6.504.623-9.783-.059-1.592-.298-3.178-.352-4.77-.075-2.25-.68-4.409-1.044-6.607-.16-.97-.58-1.898-.887-2.845-.109-.341-.3-.677-.316-1.022-.013-.268.108-.653.31-.798.355-.259.671.01.891.329.112.163.195.347.281.526.816 1.674 1.178 3.469 1.405 5.3.035.277-.003.576.086.832.651 1.864.863 3.806 1 5.753.116 1.673.134 3.353.196 5.03M100.725 121.502c-.137.166-.312.505-.587.69-.893.595-1.796 1.186-2.745 1.682-1.658.866-3.388 1.6-5.025 2.502-1.707.94-3.32 2.047-5.01 3.02-1.589.914-3.219 1.755-4.839 2.61-.636.335-1.04.285-1.278-.093-.268-.425-.062-.877.582-1.228 1.821-.989 3.661-1.945 5.464-2.966 1.245-.706 2.44-1.503 3.66-2.255.405-.251.806-.517 1.235-.727 1.68-.823 3.381-1.606 5.053-2.447.636-.32 1.213-.762 1.826-1.134.27-.165.546-.346.845-.43.44-.123.84.204.82.776M144.833 36.005c-.18.205-.35.57-.565.602-.23.032-.506-.249-.751-.409-.058-.037-.084-.134-.112-.208-.997-2.676-2.727-4.943-4.17-7.365-.846-1.426-2.015-2.661-3.044-3.979-.196-.251-.466-.463-.594-.742-.097-.213-.115-.554-.006-.749.176-.317.535-.342.837-.136.327.222.675.446.924.744 1.5 1.803 3.114 3.521 4.219 5.622.947 1.795 1.923 3.574 2.863 5.373.178.345.244.749.399 1.247M78.526 132.738c.172.126.46.24.562.445.071.145-.049.478-.192.615a4.497 4.497 0 0 1-.968.691c-.904.494-1.825.96-2.74 1.435-.035.02-.068.043-.105.057-.388.151-.801.266-1.059-.173-.256-.435.005-.76.363-1 .396-.267.792-.54 1.216-.757.779-.397 1.578-.756 2.371-1.124.142-.066.298-.103.552-.189"/>
        <path fill="#362B24" d="M4.512 132.762c.284-.098.52-.24.758-.248a9.543 9.543 0 0 1 1.55.065c2.152.279 4.285-.023 6.426-.157.736-.046 1.481.042 2.222.069l.073.285c-.239.143-.463.366-.72.414-.662.124-1.337.228-2.009.236a389.66 389.66 0 0 1-6.923.005c-.5-.002-1.04.016-1.377-.67M12.676 130.866c.007.52-.267.645-.617.663-1.234.064-2.468.135-3.703.17-.635.019-1.275-.01-1.91-.058-.371-.028-.736-.136-1.054-.2-.105-.576.15-.774.497-.777 2.152-.02 4.306-.015 6.458-.006.097 0 .192.118.329.208M13.995 123.662c-2.014.631-4.107.352-6.173.352-.484 0-1.032.015-1.488-.596.337-.132.564-.298.793-.3a339.33 339.33 0 0 1 5.97.004c.292.002.584.1.877.154l.021.386M5.56 129.427c-.03-.538.299-.658.61-.643 1.733.083 3.507-.342 5.31.293-.89.846-3.974.977-5.92.35M13.033 115.085c-.548.045-.995.129-1.438.108-1.226-.056-2.449-.163-3.675-.235-.383-.022-.71-.087-.814-.518.624-.597 1.468-.71 3.936-.3.638.108 1.551-.178 1.991.945M12.591 107.586c-.346.272-.433.399-.528.406-1.142.08-2.285.174-3.429.182-.225.001-.6-.314-.648-.538-.084-.395.297-.509.638-.509.956 0 1.914-.013 2.867.042.315.018.62.227 1.1.417M10.244 127.292c-.895.788-3.523.752-4.443-.153 1.07-.614 2.187-.215 3.231-.32.45-.043.975-.107 1.212.473M6.604 121.325c.148-.129.265-.322.409-.344 1.4-.214 3.8.111 4.563.66-.26.148-.458.346-.68.374-1.278.167-3.541-.198-4.292-.69M8.486 125.207c1.045-.563 4.556-.45 5.747.212-.225.133-.39.309-.569.323-.434.034-.873.003-1.31-.017-.912-.042-1.823-.094-2.736-.142-.379-.02-.806.137-1.133-.376M13.365 116.518c-.35.609-.86.633-1.304.557-1.04-.18-2.19.1-3.13-.566.126-.61.535-.56.865-.542 1.184.066 2.42-.124 3.57.55M6.88 119.775c1.16-.642 2.222-.457 3.272-.33.219.026.409.284.788.565-1.275.53-2.383.13-3.456.173-.196.008-.402-.265-.604-.409M12.146 104.048c-.41.55-.997.613-1.443.484-.845-.245-1.841.368-2.638-.464.118-.16.205-.382.293-.383a74.97 74.97 0 0 1 3.319.048c.15.005.293.192.469.315M12.743 109.473c-.487.795-1.137.697-1.68.584-.551-.115-1.33.164-1.633-.73.7-.626 1.519-.211 2.257-.25.326-.016.666.24 1.056.396M14.593 127.448c-.17.114-.35.34-.533.34-.893 0-1.785-.061-2.859-.108.194-.381.261-.7.383-.723.973-.183 1.947-.172 2.883.208.051.02.063.135.126.283M10.415 118.04c1.149-.16 2.088-.323 3.008.298-.12.571-.524.707-.907.61-.667-.172-1.558.227-2.101-.909M8.732 101.944c.785-.657 2.16-.625 2.95.11-.567.748-1.373.331-2.053.416-.393.05-.808.004-.897-.526M10.318 112.561c-.252.434-.687.476-1.115.47-.504-.009-1.019-.023-1.507-.13-.283-.064-.286-.59-.008-.652a8.193 8.193 0 0 1 1.626-.167c.369-.007.805-.046 1.004.48M12.283 129.161c.937-.413 1.723-.282 2.469-.177.205.536-.042.788-.376.79-.696.002-1.514.355-2.093-.613M12.921 111.122c-.893.636-1.84.64-2.577.072.524-.59 1.489-.639 2.578-.072M7.768 105.55c.822-.627 1.592-.536 2.033.24-.951.528-1.504.463-2.033-.24M9.126 100.144c.897-.84 1.247-.845 2.15-.113-.701.585-1.354.212-2.15.113M12.233 105.664c-.571.907-1.212.915-1.756.09.702-.52.706-.521 1.756-.09M6.894 117.775c.881-.24 1.583-.314 2.26.284-1.02.558-1.549.51-2.26-.284M9.294 110.975c-.845.78-1.148.78-1.832-.027.63-.42 1.214-.397 1.832.027M13.894 120.106c-.88.54-1.256.538-1.936.043.638-.573.84-.584 1.936-.043M13.779 131.127c.202-.542.606-.55.996-.476.14.026.333.244.338.381.006.147-.151.382-.291.434-.38.142-.776.166-1.043-.339M13.027 112.77c-.627.576-1.127.485-1.694.12.63-.655.796-.668 1.694-.12M9.203 97.922c.213-.054.455-.159.7-.168.333-.013.709.115.597.508-.05.177-.48.325-.745.341-.32.019-.61-.152-.552-.681M6.113 125.145c.496-.45.956-.382 1.461-.018-.664.58-.744.581-1.46.018M12.79 121.82c.3-.442.57-.64.937-.328.083.071.128.325.069.4-.33.422-.654.29-1.006-.073M9.52 94.948c.261-.128.48-.31.563-.26.172.1.273.325.403.498-.147.1-.337.313-.43.277-.182-.071-.308-.282-.536-.515M8.015 116.288c-.195.132-.317.28-.415.265-.117-.018-.213-.174-.318-.27.1-.09.198-.243.306-.25.108-.009.227.127.427.255M10.421 96.522c-.265.04-.433.116-.522.063-.101-.063-.132-.24-.194-.366.136-.046.287-.148.405-.118.1.025.16.204.312.421M8.723 109.45c-.233.094-.355.183-.473.178-.079-.004-.23-.178-.214-.212.057-.12.166-.287.267-.296.1-.008.212.157.42.33M126.362 126.126h-.998v-1.764c.863-.19.917-.181.989.424.049.416.009.842.009 1.34M130.782 124.17l-.086 1.79c-.326.08-.612.149-.995.24v-1.91c.339-.039.626-.07 1.08-.12M123.975 125.98l-.996.125v-1.85h.996v1.725z"/>
        <mask id="f" fill="#fff">
            <use xlink:href="#e"/>
        </mask>
        <path fill="#362B24" d="M138.592 115.041h.924v-1.745h-.924zM130.19 116.082h.976v1.629l-.976.077v-1.706zM136.627 118.87c.373.033.637.055.88.075.35 1.534.242 1.732-.88 1.577v-1.651zM124.453 115.787l-.2 1.788h-1.098c.069-.609.134-1.175.202-1.788h1.096zM125.153 131.422v-1.538l1.012-.151v1.689h-1.012zM130.056 118.917h.881v1.676h-1.08l.2-1.676M126.607 117.75l-1.058-.146.175-1.702h.968l-.085 1.848M122.983 128.87v-1.667l1.005-.124.076 1.671-1.081.12M139.618 116.151v1.69h-.897l-.203-1.548c.19-.09.319-.19.455-.204.184-.017.373.032.645.063M127.728 124.243h.811v1.762c-.78.225-.856.208-.879-.34-.019-.46.041-.922.068-1.422M130.6 131.493h-.939c-.084-.562-.165-1.092-.257-1.717l1.085-.086.111 1.803M138.802 118.926l.83.072v1.644c-.993.108-1.078.053-1.02-.702.021-.304.11-.603.19-1.014M137.443 123.321l-.988-.107v-1.419l.988-.112v1.638zM124.255 120.268h-1.084l-.08-1.474 1.073-.11.091 1.584M123.11 121.441c1.155-.02 1.228.14.821 1.648-.133.014-.282.046-.43.039-.15-.008-.298-.055-.56-.108l.169-1.579M126.26 127.245c.178 1.504.178 1.504-.904 1.537v-1.471l.904-.066M132.923 126.892v1.847l-.809.088v-1.784l.809-.15M125.296 123.317l.094-1.69c.353-.021.636-.04 1.05-.066-.031.476.04.9-.114 1.213-.106.22-.518.29-1.03.543M135.113 128.56l-.866.052v-1.754l.866-.12v1.821zM132.114 125.89l.232-1.628.83-.061c-.023.514.016.98-.085 1.414-.102.437-.485.429-.977.276M132.533 116.05l.803.035v1.717l-.803.035v-1.788zM128.323 129.717v1.717l-.814.104v-1.723l.814-.098M128.824 115.975v1.677l-.758.081c-.251-1.63-.202-1.756.758-1.758M135.26 117.78l-.772.051v-1.718h.771v1.666zM123.975 131.481h-.774l-.262-1.526 1.036-.233v1.759zM131.313 114.981a601.5 601.5 0 0 0-.907-.042c0-.511-.048-1.01.028-1.487.024-.153.377-.252.765-.489l.114 2.019M137.43 113.163v1.754l-.82.085v-1.796l.82-.043M137.48 116.016l.108 1.72c-.356.018-.608.03-.936.049v-1.614l.828-.155M134.46 120.606v-1.64l.802-.045v1.622l-.802.063M133.298 114.934h-.631c-.328-.42-.21-1.164.273-1.768.48.55.48.55.358 1.768M125.615 118.731l.822.106v1.534l-.822.084v-1.724zM133.146 120.6l-.73-.044c-.237-1.438-.236-1.441.73-1.595v1.64zM138.784 121.782h.845v1.374l-.845.143v-1.517zM135.098 124.254v1.414l-.77.1c-.246-1.444-.246-1.444.77-1.514M135.278 114.956h-.735c-.117-.646-.333-1.268.298-1.879.497.566.512 1.155.437 1.88M130.5 128.674h-.83v-1.533l.83-.071v1.604zM128.632 118.927v1.49c-.606.24-.859.06-.886-.528-.035-.816.077-.961.886-.962M128.56 121.583v1.473h-.787v-1.342l.787-.13M128.362 128.744c-.328.03-.514.049-.839.08 0-.46-.028-.871.01-1.275.022-.234.07-.23.829-.254v1.449zM135.118 123.109h-.825v-1.35h.98l-.155 1.35M137.235 125.743l-.854-.152v-1.153h1.094l-.24 1.305M128.749 114.913c-.19-.12-.484-.197-.548-.364-.207-.545.035-1.072.704-1.476l.088 1.614-.244.226M132.348 123.052h.764v-1.342h-.764zM129.905 121.797h.873v1.243h-.933c.022-.456.04-.86.06-1.243M126.635 114.8l-.676-.05c-.31-1.143-.276-1.22.676-1.4v1.45zM42.623 116.502c.1.273.281.545.286.819.025 1.395.004 2.79-.004 4.185 0 .118-.015.24-.046.355-.086.314-.202.685-.603.565-.192-.058-.424-.388-.428-.597a88.135 88.135 0 0 1 .04-4.423c.01-.311.234-.615.36-.923l.395.019M28.998 122.764c-.074-.364-.154-.507-.112-.584.925-1.689 1.494-3.512 2.073-5.333.038-.12.224-.194.465-.39.527 1.523-.116 2.753-.615 3.966-.358.87-.647 1.864-1.81 2.341M35.14 116.892c.594.273.66.78.535 1.228-.354 1.264-.782 2.507-1.203 3.75-.06.175-.222.344-.381.446a.505.505 0 0 1-.44.01c-.11-.064-.178-.245-.208-.386-.023-.105.04-.231.075-.345.438-1.45.873-2.9 1.324-4.345.04-.131.187-.228.299-.358M31.23 122.064c.047-.28.055-.478.116-.658.43-1.279.877-2.552 1.301-3.832.117-.352.193-.703.793-.63.051.215.178.468.157.709-.122 1.41-.636 2.703-1.282 3.944-.183.35-.465.645-1.086.468M37.039 116.614c.525.611.632 1.106.5 1.628a109.487 109.487 0 0 1-.946 3.453c-.051.18-.185.361-.331.481a.506.506 0 0 1-.43.07c-.118-.047-.188-.222-.271-.345-.02-.029-.02-.08-.008-.118.477-1.666.957-3.333 1.486-5.169M47.145 116.893c.2.274.454.523.59.826a63.31 63.31 0 0 1 1.33 3.186c.083.215.07.61-.07.738-.276.258-.621.094-.807-.2-.86-1.356-1.608-2.75-1.33-4.433l.287-.117M51.258 121.66c-.644.132-.929-.274-1.192-.668-.825-1.236-1.378-3.17-1.16-4.215.242.18.528.283.618.477.633 1.358 1.227 2.734 1.824 4.108.023.053-.04.144-.09.299M44.845 122.057c-.27-.27-.516-.42-.623-.639a7.422 7.422 0 0 1-.749-3.809c.03-.45.176-.776.694-.648.328 1.562.652 3.09.96 4.62.015.083-.11.194-.282.476M47.23 121.727c-.513.363-.808.133-.972-.201a9.865 9.865 0 0 1-.643-1.652c-.183-.646-.298-1.314-.41-1.977-.058-.345-.112-.727.492-.963l1.534 4.793M39.87 122.192c-.121-.265-.25-.407-.233-.53.18-1.45.378-2.898.588-4.344.009-.068.175-.114.385-.241.428.854.424 1.705.264 2.549-.163.855.02 1.856-1.003 2.566M38.158 122.207c-.173-.117-.285-.152-.293-.205-.03-.186-.07-.389-.027-.567.356-1.485.73-2.966 1.21-4.445.552.87.35 1.841.224 2.718-.128.887-.38 1.84-1.114 2.5M74.451 145.048c-.526.74-1.073.66-1.567.564-1.933-.374-3.78-1.005-5.478-2.018-.349-.208-.61-.563-.959-.892.591-.531 1.017-.172 1.397.025 1.71.89 3.5 1.552 5.377 1.98.372.085.736.203 1.23.34M82.89 143.619c.272.59-.008.81-.36.966-2.014.89-4.117 1.256-6.314 1.03a.7.7 0 0 1-.326-.134c-.089-.066-.147-.173-.27-.326.162-.126.3-.328.445-.333 2.174-.074 4.278-.497 6.333-1.197.137-.047.305-.006.491-.006M79.66 142.642c-1.335 1.435-6.32 1.5-7.788.352.087-.455.458-.423.743-.347 1.905.506 3.8.261 5.703.004.44-.06.894-.009 1.342-.009M83.91 143.04c.276-.366.483-.674.723-.954.823-.96.83-1.052.242-2.189-.094-.182-.095-.412-.145-.648 1.05.118 1.527.802 1.416 1.911-.103 1.023-1.183 2.026-2.236 1.88M66.015 138.126c-.808.814-.907 1.595-.472 2.489.158.327.063.756-.373.87-.446.117-.672-.231-.734-.592-.093-.544-.172-1.11-.125-1.654.074-.848.675-1.264 1.704-1.113M30.764 127.5c.195-.175.307-.36.416-.358 2.541.038 5.081.093 7.622.157.148.004.293.104.546.2-.805.673-1.508.582-2.135.601-3.326.101-5.646-.113-6.449-.6M45.705 127.297c.43-.088.76-.204 1.093-.214 1.51-.047 3.02-.066 4.53-.091.199-.003.417-.028.59.043.159.064.393.265.375.368-.032.19-.205.482-.354.504-.706.107-1.424.188-2.137.183-1.033-.007-2.065-.096-3.098-.147-.35-.019-.723.021-1-.646M37.553 129.714c-.292.048-.583.122-.877.141-1.235.08-2.471.16-3.707.204-.69.026-1.425.177-2.133-.462.262-.17.433-.378.606-.38a271.6 271.6 0 0 1 5.637-.02c.168.001.335.143.502.22-.01.1-.02.198-.028.297M48.573 131.707c1.53-.766 3.141-.814 4.021-.175-.249.155-.456.396-.662.395-1.029-.006-2.087.263-3.359-.22M32.755 131.795c1.026-.633 2.691-.636 3.459-.011-.228.162-.428.425-.631.427-.91.011-1.872.289-2.828-.416M34.457 133.234c-.297.743-.895.547-1.353.575-1.082.067-1.641-.121-2.108-.584.85-.314 2.474-.326 3.46.009M48.926 133.517c.917-.689 1.746-.548 2.6-.455-.268.784-.784.881-2.6.455M52.318 129.264c-.329.931-.548.972-1.705.415.396-.78 1.022-.46 1.705-.415M49.59 129.7c-.917.264-1.525.336-2.118-.2.44-.525.972-.3 1.438-.288.166.005.326.224.68.489M30.822 131.777c.414-.376.73-.353 1.135-.03-.364.433-.686.31-1.135.03M35.822 133.271c-.262.187-.393.338-.548.368-.08.016-.203-.178-.307-.277.108-.1.203-.258.33-.288.11-.027.254.088.525.197M52.501 132.834c.113.217.223.332.2.407-.037.12-.162.214-.249.318-.083-.072-.238-.15-.233-.216.01-.116.116-.225.282-.509M118.027 132.936c-.733.69-1.448.255-2.379.08.915-.727 1.648-.417 2.379-.08M115.864 131.183c.485-.02.812-.036 1.269-.056-.555.715-.555.715-1.27.056M117.387 126.943h-1.233c.714-.585.714-.585 1.233 0" mask="url(#f)"/>
        <path fill="#FEFEFE" d="M81.496 67.242l.006-.03c.438 0 .884.055 1.312-.012.909-.144 1.67-.527 1.948-1.51.262-.929-.115-1.644-.796-2.216-.296-.248-.67-.505-1.033-.552-1.098-.143-2.214-.296-3.311-.23-.94.057-1.576.866-2.207 1.492-.238.237-.256.833-.176 1.226.199.986.979 1.418 1.886 1.58.78.14 1.58.172 2.37.252m.999 17.927c.483-.05 1.123-.086 1.752-.187 2.879-.467 5.722-.929 7.972-3.127 1.439-1.405 1.608-3.422.126-4.797-.667-.62-1.471-.912-2.327-1.16-1.665-.482-3.286-.03-4.844.348-2.978.724-5.875.437-8.742-.35-2.838-.779-5.436-2.07-7.543-4.205-.646-.654-1.466-.942-2.36-1.055-.781-.099-1.42.186-1.902.785-1.133 1.404-1.496 2.915-.834 4.684.699 1.871 2.149 3.042 3.625 4.193 2.236 1.742 4.842 2.788 7.506 3.628 2.397.756 4.893 1.126 7.57 1.243m-6.227-41.952c.33-2.543-.173-4.77-1.338-6.845-.91-1.62-2.151-2.867-4.082-3.223-.703-.129-1.395-.36-2.103-.415-1.992-.155-3.927-.022-5.453 1.526-1.116 1.134-2.303 2.208-3.333 3.417-2.047 2.403-2.855 5.305-3.013 8.395-.14 2.747.763 5.272 1.92 7.697.94 1.968 2.707 2.814 4.758 3.21 1.36.262 2.606-.138 3.86-.55 2.18-.718 4.038-1.874 5.318-3.846.518-.798 1.116-1.544 1.636-2.34.259-.396.45-.842.624-1.283.262-.664.515-1.335.709-2.02.204-.724.379-1.463.482-2.207.076-.548.015-1.116.015-1.516m39.626 6.895c.092-1.936-.5-3.635-1.4-5.294-1.117-2.054-2.78-3.524-4.892-4.362-2.117-.84-4.27-.25-6.048.927-3.207 2.124-5.375 5.163-6.854 8.724-1.312 3.158-1.612 6.415-1.117 9.748.289 1.946 1.189 3.59 2.78 4.874 1.017.821 2.164 1.36 3.302 1.92 2.063 1.016 4.206.932 6.233-.06 1.552-.76 2.859-1.913 3.91-3.3 1.364-1.8 2.362-3.795 2.903-5.994.237-.964.394-1.95.553-2.93.228-1.416.422-2.835.63-4.253m-29.286 48.14c-2.146-.1-4.446-.028-6.684-.362-2.556-.382-5.114-.954-7.57-1.752-4.652-1.51-9.02-3.658-12.935-6.636-1.24-.942-2.447-1.928-3.66-2.906-1.265-1.02-2.163-2.335-2.98-3.722-.341-.579-.812-1.08-1.195-1.636-.743-1.08-1.525-2.142-2.186-3.272-1.356-2.319-2.306-4.818-3.1-7.379-.176-.57-.406-1.126-.574-1.699-.167-.57-.303-1.15-.423-1.732a21.013 21.013 0 0 1-.274-1.653c-.192-1.58-.552-3.17-.506-4.746.07-2.388.458-4.766.658-7.153.23-2.749 1.076-5.304 2.264-7.77.223-.464.299-.997.51-1.468.423-.94.886-1.864 1.344-2.789.177-.357.437-.68.574-1.049.832-2.246 2.299-4.11 3.706-5.982 2.338-3.113 5.177-5.78 8.26-8.13 1.733-1.32 3.719-2.324 5.647-3.366a40.523 40.523 0 0 1 7.152-3.039c1.43-.45 2.892-.59 4.354-.756 1.504-.17 3.02-.276 4.533-.316 2.153-.057 4.312-.112 6.46-.008 1.835.09 3.626.522 5.338 1.252.84.358 1.747.561 2.602.89 3.068 1.183 5.904 2.787 8.613 4.652 2.075 1.428 4.099 2.907 6.009 4.55 1.37 1.178 2.559 2.506 3.74 3.87 2.295 2.647 3.985 5.674 5.735 8.67.75 1.282 1.204 2.683 1.499 4.147.322 1.602.857 3.17 1.073 4.781.23 1.732.31 3.501.26 5.25-.135 4.754-1.343 9.295-2.883 13.772-1.414 4.112-3.56 7.854-5.821 11.516-1.055 1.712-2.532 3.187-3.936 4.657a44.633 44.633 0 0 1-7.507 6.316c-1.124.75-2.365 1.322-3.552 1.978-.768.424-1.517.887-2.307 1.267-.674.324-1.373.685-2.098.801-1.93.308-3.876.53-5.821.716-1.391.134-2.792.157-4.32.236" mask="url(#f)"/>
        <path fill="#362B24" d="M111.164 44.913c-.017.236-.026.473-.052.708-.16 1.52-.49 2.941-1.413 4.251-.703.996-1.56 1.801-2.381 2.666a9.496 9.496 0 0 1-3.337 2.273c-1.688.697-3.28.462-4.822-.415-.297-.169-.583-.357-.982-.605-.268 2.234-.505 4.33.092 6.416a4.81 4.81 0 0 0 1.526 2.38c.986.852 2.129 1.411 3.308 1.887.683.276 1.395.431 2.209.271 1.943-.383 3.295-1.573 4.466-3.013 1.144-1.407 1.917-3.036 2.382-4.788.275-1.036.397-2.11.652-3.153.375-1.53.413-3.079.41-4.64-.002-1.706-.833-3.02-2.058-4.238m4.729 5.2c-.208 1.417-.403 2.836-.63 4.251-.16.981-.318 1.967-.554 2.931-.54 2.2-1.538 4.193-2.902 5.993-1.051 1.388-2.36 2.54-3.911 3.3-2.028.993-4.17 1.077-6.234.061-1.137-.56-2.283-1.099-3.301-1.919-1.591-1.284-2.492-2.929-2.781-4.875-.493-3.333-.193-6.59 1.118-9.748 1.479-3.56 3.647-6.6 6.854-8.724 1.778-1.178 3.93-1.768 6.049-.927 2.112.838 3.774 2.308 4.89 4.363.902 1.658 1.492 3.357 1.402 5.293M60.12 44.16l-.381.111c-.09.663-.245 1.323-.26 1.987-.048 2.293.696 4.401 1.707 6.405.264.524.835.962 1.364 1.267 1.12.645 2.322.734 3.573.277 1.623-.592 3.237-1.169 4.287-2.67.66-.946 1.34-1.878 1.979-2.836.172-.257.239-.587.336-.89.109-.34.129-.73.306-1.028 1.074-1.808.659-3.804.739-5.73.023-.545-.125-1.117-.295-1.644-.287-.892-.6-1.789-1.297-2.507-.082.128-.146.185-.156.251-.47 2.967-1.455 5.641-4.134 7.37-.167.107-.305.258-.458.386-1.942 1.63-4.93 1.607-6.824-.07-.204-.179-.325-.45-.485-.68m16.144-.942c0 .4.06.968-.014 1.516a16.344 16.344 0 0 1-.483 2.206c-.193.686-.447 1.357-.708 2.021-.174.441-.366.887-.624 1.282-.52.797-1.118 1.543-1.636 2.341-1.281 1.972-3.137 3.128-5.318 3.846-1.254.412-2.5.812-3.86.55-2.052-.396-3.82-1.242-4.758-3.21-1.157-2.425-2.06-4.95-1.92-7.697.158-3.09.965-5.992 3.013-8.395 1.029-1.208 2.216-2.283 3.333-3.417 1.525-1.548 3.46-1.68 5.453-1.526.707.054 1.4.286 2.103.415 1.93.356 3.172 1.603 4.082 3.223 1.165 2.074 1.668 4.303 1.337 6.845M90.9 80.264c.072-1.15-.014-1.44-.769-1.66-.713-.206-1.49-.335-2.227-.293-.948.053-1.882.34-2.828.473-1.144.156-2.3.384-3.445.352-2.66-.074-5.218-.742-7.63-1.843-2.142-.977-4.282-1.993-5.967-3.721a4.293 4.293 0 0 0-.838-.678c-.796-.481-1.442-.122-1.427.81.015 1.085.415 2.06 1.206 2.786.969.886 1.959 1.782 3.062 2.478 2.626 1.659 5.533 2.608 8.58 3.214 2.765.55 5.489.513 8.17-.306 1.398-.428 2.734-1.064 4.113-1.612m-8.407 4.905c-2.677-.117-5.172-.486-7.57-1.243-2.663-.84-5.27-1.886-7.505-3.628-1.478-1.151-2.928-2.322-3.627-4.193-.661-1.77-.298-3.28.835-4.684.483-.6 1.121-.884 1.902-.785.893.113 1.713.4 2.36 1.055 2.106 2.135 4.704 3.427 7.542 4.205 2.867.787 5.764 1.075 8.743.35 1.558-.378 3.178-.83 4.843-.347.856.247 1.66.539 2.328 1.159 1.48 1.375 1.312 3.393-.125 4.797-2.251 2.198-5.094 2.66-7.972 3.127-.63.102-1.27.137-1.754.187M81.496 67.242c-.791-.08-1.591-.113-2.371-.252-.907-.162-1.687-.594-1.886-1.58-.08-.393-.062-.989.176-1.226.63-.626 1.267-1.435 2.207-1.492 1.097-.066 2.213.087 3.31.23.365.047.738.304 1.034.552.68.572 1.058 1.287.796 2.215-.277.984-1.04 1.367-1.948 1.511-.428.067-.874.011-1.312.011l-.006.031" mask="url(#f)"/>
        <path fill="#FEFEFE" d="M111.164 44.913c1.225 1.217 2.056 2.532 2.059 4.237.002 1.562-.036 3.111-.411 4.641-.255 1.042-.377 2.117-.652 3.153-.465 1.752-1.238 3.381-2.382 4.788-1.171 1.44-2.523 2.63-4.466 3.013-.814.16-1.526.005-2.21-.27-1.178-.477-2.321-1.036-3.307-1.888a4.81 4.81 0 0 1-1.526-2.38c-.597-2.087-.36-4.182-.092-6.416.399.248.685.436.982.605 1.542.877 3.134 1.112 4.822.415a9.496 9.496 0 0 0 3.337-2.273c.82-.865 1.678-1.67 2.38-2.666.925-1.31 1.254-2.732 1.414-4.25.026-.236.035-.473.052-.709M60.12 44.16c.16.228.282.5.486.68 1.894 1.676 4.882 1.7 6.824.07.153-.129.29-.28.458-.387 2.679-1.729 3.665-4.403 4.134-7.37.01-.066.074-.123.156-.25.698.717 1.01 1.614 1.297 2.506.17.527.318 1.1.295 1.643-.08 1.927.335 3.923-.74 5.731-.176.298-.196.687-.305 1.028-.097.303-.164.633-.336.89-.64.958-1.32 1.89-1.98 2.835-1.05 1.502-2.663 2.08-4.286 2.671-1.251.457-2.452.368-3.573-.277-.53-.305-1.1-.743-1.364-1.267-1.011-2.004-1.755-4.112-1.706-6.405.014-.664.169-1.324.259-1.987l.382-.112" mask="url(#f)"/>
        <path fill="#F59795" d="M90.9 80.264c-1.379.548-2.715 1.184-4.113 1.612-2.681.819-5.405.857-8.17.306-3.047-.606-5.954-1.555-8.58-3.214-1.104-.696-2.094-1.592-3.062-2.478-.79-.725-1.19-1.701-1.206-2.785-.015-.933.63-1.292 1.427-.811.305.184.588.422.838.678C69.72 75.3 71.86 76.316 74 77.292c2.413 1.102 4.97 1.77 7.63 1.844 1.145.032 2.302-.196 3.446-.352.947-.132 1.88-.42 2.829-.473.736-.042 1.513.087 2.227.294.754.22.84.51.768 1.659" mask="url(#f)"/>
    </g>
</svg>
