<svg xmlns="http://www.w3.org/2000/svg" width="24" height="29" viewBox="0 0 24 29">
    <g fill="none" fill-rule="evenodd">
        <path fill="#FEFEFE" d="M23 12.06c0 5.255-4.033 12.383-8.693 15.263a4.594 4.594 0 0 1-4.7.06C4.633 24.526 1 17.35 1 12.06 1 5.952 5.925 1 12 1s11 4.952 11 11.06"/>
        <path stroke="#231F20" stroke-width="1.5" d="M23 12.06c0 5.255-4.033 12.383-8.693 15.263a4.594 4.594 0 0 1-4.7.06C4.633 24.526 1 17.35 1 12.06 1 5.952 5.925 1 12 1s11 4.952 11 11.06z"/>
        <path fill="#FEFEFE" d="M16 12a5 5 0 1 1-10 0 5 5 0 0 1 10 0"/>
        <path stroke="#231F20" stroke-width="1.5" d="M17 12a5 5 0 1 1-10 0 5 5 0 0 1 10 0z"/>
    </g>
</svg>
