<svg xmlns="http://www.w3.org/2000/svg" width="35" height="58" viewBox="0 0 35 58">
    <path fill="#FFF" fill-rule="evenodd" d="M34.972 13.404C34.972 5.592 28.336.132 17.5.132c-5.376 0-13.86 2.184-16.128 6.636-.336.672-.504 1.428-.504 2.268 0 3.024 2.268 4.872 4.956 4.872 1.26 0 2.52-.336 3.528-1.008 2.016-1.344 4.368-2.184 6.888-2.184 4.62 0 6.552 2.184 6.552 4.788 0 5.796-12.264 6.972-12.264 16.968 0 5.124 2.772 7.812 5.964 7.812 3.108 0 4.704-2.352 4.704-4.452 0-.84-.252-1.176-.252-2.268 0-6.972 14.028-7.896 14.028-20.16zM24.136 51.12c0-3.696-3.108-6.804-6.804-6.804s-6.804 3.108-6.804 6.804 3.108 6.804 6.804 6.804 6.804-3.108 6.804-6.804z"/>
</svg>
