<svg xmlns="http://www.w3.org/2000/svg" width="77" height="76" viewBox="0 0 77 76">
    <g fill="#EEF7FF" fill-rule="evenodd">
        <path d="M14.714 54.14h.88c1.05 0 1.9.532 1.9 1.189v8.32c0 .655-.85 1.188-1.9 1.188h-.88c-1.05 0-1.901-.533-1.901-1.188v-8.32c0-.657.851-1.189 1.9-1.189M25.973 64.384h.88c1.05 0 1.9.532 1.9 1.189v8.32c0 .655-.85 1.188-1.9 1.188h-.88c-1.05 0-1.901-.533-1.901-1.188v-8.32c0-.657.852-1.189 1.901-1.189M51.323 64.384h.879c1.05 0 1.901.532 1.901 1.189v8.32c0 .655-.85 1.188-1.901 1.188h-.88c-1.049 0-1.9-.533-1.9-1.188v-8.32c0-.657.851-1.189 1.9-1.189M37.232 54.14h.88c1.05 0 1.901.532 1.901 1.189v8.32c0 .655-.851 1.188-1.9 1.188h-.881c-1.05 0-1.901-.533-1.901-1.188v-8.32c0-.657.851-1.189 1.901-1.189M63.195 54.14h.88c1.05 0 1.9.532 1.9 1.189v8.32c0 .655-.85 1.188-1.9 1.188h-.88c-1.05 0-1.901-.533-1.901-1.188v-8.32c0-.657.852-1.189 1.901-1.189M65.173 20.614C64.508 9.258 55.141.186 43.858.186c-6.853 0-13.49 3.356-17.608 8.837-.091-.049-.191-.078-.289-.13-.245-.116-.499-.232-.758-.337-.147-.057-.289-.105-.437-.16a14.26 14.26 0 0 0-.777-.24c-.148-.038-.29-.08-.438-.112a12.515 12.515 0 0 0-.868-.154 3.503 3.503 0 0 0-.383-.06 11.886 11.886 0 0 0-1.269-.075c-6.267 0-11.356 5.092-11.356 11.35 0 .16.005.32.016.475v.006C4.441 22.449.837 28.435.837 34.434c0 8.936 7.27 16.203 16.212 16.203H47.98c.13 0 .259-.006.395-.02l.074-.012.172.013c.13.013.259.02.388.02h12.375c8.37 0 15.177-6.806 15.177-15.17 0-6.922-4.83-13.135-11.388-14.854"/>
    </g>
</svg>
