<svg xmlns="http://www.w3.org/2000/svg" xmlns:xlink="http://www.w3.org/1999/xlink" width="30" height="29" viewBox="0 0 30 29">
    <defs>
        <path id="a" d="M29.011 30V.989H.001v29.01z"/>
    </defs>
    <g fill="none" fill-rule="evenodd">
        <g transform="translate(0 -.989)">
            <mask id="b" fill="#fff">
                <use xlink:href="#a"/>
            </mask>
            <path fill="#9B9B9B" d="M27.939 17.225c0 .23-.19.42-.42.42h-2.715c-.871 0-1.621.5-1.955 1.306-.335.805-.16 1.69.46 2.306l1.917 1.92a.415.415 0 0 1 0 .593l-2.445 2.445a.417.417 0 0 1-.592 0l-1.92-1.918a2.082 2.082 0 0 0-2.307-.46 2.086 2.086 0 0 0-1.306 1.956v2.715c0 .23-.19.42-.42.42h-3.46a.421.421 0 0 1-.42-.42v-2.715c0-.871-.5-1.621-1.306-1.955a2.126 2.126 0 0 0-.823-.168 2.09 2.09 0 0 0-1.483.625l-1.918 1.92a.42.42 0 0 1-.595 0L3.786 23.77a.425.425 0 0 1 0-.595l1.92-1.918a2.08 2.08 0 0 0 .457-2.306 2.081 2.081 0 0 0-1.954-1.306H1.493a.419.419 0 0 1-.417-.42v-3.46c0-.231.186-.42.417-.42h2.716c.873 0 1.62-.5 1.954-1.307a2.078 2.078 0 0 0-.457-2.305l-1.92-1.918a.426.426 0 0 1 0-.596L6.23 4.775a.423.423 0 0 1 .595 0l1.918 1.917a2.081 2.081 0 0 0 2.306.459 2.078 2.078 0 0 0 1.306-1.954V2.482c0-.231.189-.417.42-.417h3.46c.23 0 .42.186.42.417v2.715c0 .873.5 1.62 1.306 1.954.806.336 1.69.16 2.307-.456l1.92-1.92a.42.42 0 0 1 .592 0l2.445 2.447a.415.415 0 0 1 0 .593l-1.917 1.918a2.083 2.083 0 0 0-.46 2.308 2.086 2.086 0 0 0 1.955 1.306h2.716a.418.418 0 0 1 .419.418v3.46zm-.42-4.953h-2.715c-.435 0-.795-.242-.963-.643a1.018 1.018 0 0 1 .226-1.136l1.92-1.92a1.494 1.494 0 0 0 0-2.112L23.54 4.014c-.564-.564-1.548-.564-2.112 0l-1.921 1.92a1.011 1.011 0 0 1-1.133.226 1.016 1.016 0 0 1-.645-.963V2.482c0-.824-.67-1.493-1.493-1.493h-3.46c-.824 0-1.493.669-1.493 1.493v2.715c0 .435-.241.795-.642.963a1.017 1.017 0 0 1-1.137-.226l-1.92-1.92c-.564-.564-1.548-.564-2.112 0L3.025 6.46a1.489 1.489 0 0 0-.436 1.057c0 .399.155.774.436 1.055l1.92 1.92c.307.307.39.732.226 1.136a1.015 1.015 0 0 1-.962.643H1.493C.669 12.272 0 12.94 0 13.765v3.46c0 .823.668 1.492 1.492 1.492h2.716c.435 0 .794.242.962.646.167.4.08.826-.226 1.133l-1.92 1.92a1.488 1.488 0 0 0-.436 1.055c0 .4.155.776.436 1.057l2.447 2.447c.564.565 1.548.565 2.113 0l1.919-1.92a1.018 1.018 0 0 1 1.137-.225c.4.168.642.527.642.963v2.715c0 .823.669 1.492 1.493 1.492h3.46c.824 0 1.493-.67 1.493-1.492v-2.715c0-.436.24-.795.642-.963.404-.168.83-.082 1.136.226l1.92 1.919c.565.565 1.549.565 2.113 0l2.447-2.447a1.493 1.493 0 0 0 0-2.112l-1.92-1.92a1.015 1.015 0 0 1-.226-1.133c.165-.404.528-.646.963-.646h2.716c.823 0 1.492-.67 1.492-1.492v-3.46c0-.824-.67-1.493-1.492-1.493z" mask="url(#b)"/>
        </g>
        <path fill="#9B9B9B" d="M14.508 18.266a3.765 3.765 0 0 1-3.762-3.759 3.765 3.765 0 0 1 3.762-3.762 3.765 3.765 0 0 1 3.759 3.762 3.764 3.764 0 0 1-3.76 3.76m0-8.598a4.843 4.843 0 0 0-4.837 4.838 4.842 4.842 0 0 0 4.838 4.835 4.84 4.84 0 0 0 4.834-4.835 4.842 4.842 0 0 0-4.834-4.838"/>
    </g>
</svg>
