<svg xmlns="http://www.w3.org/2000/svg" xmlns:xlink="http://www.w3.org/1999/xlink" width="76" height="76" viewBox="0 0 76 76">
    <defs>
        <path id="a" d="M0 51.841V.702h75.676v51.14z"/>
    </defs>
    <g fill="none" fill-rule="evenodd">
        <g fill="#F4FBFB">
            <path d="M24 61.5c0 1.933-1.343 3.5-3 3.5-1.656 0-3-1.567-3-3.5s1.344-3.5 3-3.5c1.657 0 3 1.567 3 3.5M40 61.5c0 1.933-1.343 3.5-3 3.5-1.656 0-3-1.567-3-3.5s1.344-3.5 3-3.5c1.657 0 3 1.567 3 3.5M33 72.5c0 1.933-1.343 3.5-3 3.5-1.656 0-3-1.567-3-3.5s1.344-3.5 3-3.5c1.657 0 3 1.567 3 3.5M50 72.5c0 1.933-1.343 3.5-3 3.5-1.656 0-3-1.567-3-3.5s1.344-3.5 3-3.5c1.657 0 3 1.567 3 3.5M59 61.5c0 1.933-1.343 3.5-3 3.5-1.656 0-3-1.567-3-3.5s1.344-3.5 3-3.5c1.657 0 3 1.567 3 3.5"/>
        </g>
        <g>
            <mask id="b" fill="#fff">
                <use xlink:href="#a"/>
            </mask>
            <path fill="#F4FBFB" d="M64.295 21.409C63.629 9.898 54.269.702 42.994.702c-6.849 0-13.482 3.403-17.597 8.958-.091-.05-.191-.08-.289-.132a13.345 13.345 0 0 0-.758-.34c-.146-.059-.289-.109-.436-.165a14.102 14.102 0 0 0-.776-.242c-.148-.039-.29-.082-.438-.114a12.347 12.347 0 0 0-.867-.155 3.227 3.227 0 0 0-.384-.063 11.93 11.93 0 0 0-1.268-.075c-6.263 0-11.35 5.162-11.35 11.505 0 .164.006.324.018.481v.007c-5.247 2.902-8.85 8.97-8.85 15.051 0 9.058 7.267 16.423 16.203 16.423h30.911c.13 0 .258-.006.394-.019l.074-.013.172.013c.13.013.259.02.388.02h12.367c8.363 0 15.168-6.898 15.168-15.376 0-7.017-4.827-13.315-11.381-15.057" mask="url(#b)"/>
        </g>
    </g>
</svg>
