<svg xmlns="http://www.w3.org/2000/svg" width="75" height="76" viewBox="0 0 75 76">
    <g fill="#FEE050" fill-rule="evenodd">
        <circle cx="37.5" cy="38.5" r="19.5"/>
        <rect width="4" height="13" x="35" rx="2"/>
        <path d="M8.53 9.53a1.807 1.807 0 0 1 2.554 0l6.387 6.386a1.807 1.807 0 1 1-2.555 2.555L8.53 12.084a1.807 1.807 0 0 1 0-2.555zM13 37c0 1.105-.831 2-1.857 2H1.857C.831 39 0 38.105 0 37s.831-2 1.857-2h9.286c1.026 0 1.857.895 1.857 2zM16.47 55.53c.706.705.706 1.848 0 2.554l-6.386 6.387a1.807 1.807 0 1 1-2.555-2.555l6.387-6.387a1.807 1.807 0 0 1 2.555 0z"/>
        <rect width="4" height="13" x="35" y="63" rx="2"/>
        <path d="M55.53 55.53a1.807 1.807 0 0 1 2.554 0l6.387 6.386a1.807 1.807 0 1 1-2.555 2.555l-6.387-6.387a1.807 1.807 0 0 1 0-2.555zM75 37c0 1.105-.831 2-1.857 2h-9.286C62.831 39 62 38.105 62 37s.831-2 1.857-2h9.286c1.026 0 1.857.895 1.857 2zM64.47 9.53c.706.705.706 1.848 0 2.554l-6.386 6.387a1.807 1.807 0 1 1-2.555-2.555l6.387-6.387a1.807 1.807 0 0 1 2.555 0z"/>
    </g>
</svg>
