<svg xmlns="http://www.w3.org/2000/svg" width="47" height="42" viewBox="0 0 47 42">
    <g fill="#9B9B9B" fill-rule="evenodd">
        <path d="M33.509 7.631V24.3c0 1.508-.23 3.126-2.153 3.232h-12.76c-.907 0-2.173.185-2.99-.299-1.128-.669-1.068-1.817-1.068-2.933V5.329c0-.808-.125-1.787.295-2.51.725-1.25 2.084-1.08 3.292-1.08h4.837c2.764 0 5.59-.18 8.35 0 2.87.187 2.197 3.883 2.197 5.892zm1.434 3.01v-4.91c0-.808.081-1.678-.067-2.477C34.181-.5 29.656.289 26.91.289c-3.336 0-6.677-.055-10.013 0-1.882.03-3.53 1.243-3.763 3.214-.093.777-.03 1.59-.03 2.371 0 6.462-.232 12.968 0 19.425.074 2.052 1.549 3.595 3.592 3.682 1.024.043 2.06 0 3.084 0h11.578c2.068-.114 3.527-1.644 3.586-3.732.028-.962 0-1.929 0-2.891V10.642z"/>
        <path d="M18.714 19h11.572c.951 0 .953-1 0-1H18.714c-.951 0-.953 1 0 1M18.714 23h11.572c.951 0 .953-1 0-1H18.714c-.951 0-.953 1 0 1M24.5 14c-2.36 0-3.5-1.331-3.5-3.247V6.83c0-.455.372-.829.849-.829a.83.83 0 0 1 .826.83v3.865c0 1.086.627 1.833 1.825 1.833s1.814-.747 1.814-1.833V6.83c0-.455.372-.829.86-.829a.83.83 0 0 1 .826.83v3.912C28 12.68 26.86 14 24.5 14"/>
        <text font-family="ProximaNovaSoft-Bold, Proxima Nova Soft" font-size="7" font-weight="bold" transform="translate(1 -4)">
            <tspan x=".176" y="45">YOUYOU LIST</tspan>
        </text>
    </g>
</svg>
